<svg width="24" height="24" viewBox="0 0 24 24" fill="none" xmlns="http://www.w3.org/2000/svg">
<path fill-rule="evenodd" clip-rule="evenodd" d="M20.5181 4.75002C20.5181 4.3358 20.1823 4.00002 19.7681 4.00002H14.7681C14.3539 4.00002 14.0181 4.3358 14.0181 4.75002V9.75002C14.0181 10.1642 14.3539 10.5 14.7681 10.5C15.1823 10.5 15.5181 10.1642 15.5181 9.75002V6.25002C18.3575 8.22143 19.3328 11.9703 17.8141 15.0755C16.2953 18.1807 12.7373 19.7124 9.43795 18.6814C6.13858 17.6503 4.08582 14.3653 4.60541 10.9478C5.125 7.53038 8.06135 5.00388 11.5181 5.00002V3.50002C7.39312 3.49165 3.85757 6.44608 3.13298 10.5069C2.4084 14.5677 4.70395 18.5626 8.57723 19.9814C12.4505 21.4002 16.7834 19.8333 18.8532 16.2652C20.9231 12.6972 20.1324 8.15806 16.9781 5.50002H19.7681C20.1823 5.50002 20.5181 5.16423 20.5181 4.75002Z" fill="white"/>
</svg>
