<svg width="24" height="24" viewBox="0 0 24 24" fill="none" xmlns="http://www.w3.org/2000/svg">
<path fill-rule="evenodd" clip-rule="evenodd" d="M14.9747 9.96826L20.8082 15.8018C21.1012 16.0948 21.1012 16.5698 20.8082 16.8623C20.5152 17.1553 20.0402 17.1553 19.7472 16.8623L13.9137 11.0288L11.4077 13.5353C11.1147 13.8283 10.6397 13.8283 10.3467 13.5353L7.1652 10.3533C7.12276 10.3108 7.09539 10.261 7.06796 10.2111C7.0634 10.2028 7.05884 10.1945 7.0542 10.1863C7.04749 10.1745 7.03901 10.1636 7.03055 10.1526C7.01884 10.1375 7.00716 10.1224 7.0002 10.1053C6.8902 9.83426 6.9452 9.51226 7.1652 9.29276V9.29226L13.1752 3.28226C13.1814 3.27632 13.1885 3.27243 13.1956 3.26852C13.2016 3.2652 13.2077 3.26186 13.2132 3.25726C13.2179 3.25185 13.2213 3.24567 13.2247 3.23944C13.2285 3.23243 13.2324 3.22535 13.2382 3.21926C13.5312 2.92626 14.0057 2.92626 14.2987 3.21926L17.4807 6.40176C17.7737 6.69426 17.7737 7.16926 17.4807 7.46226C17.4748 7.46815 17.4678 7.47189 17.4608 7.47562C17.4546 7.47887 17.4485 7.48211 17.4432 7.48676C17.4382 7.49242 17.4349 7.49875 17.4315 7.50501C17.4277 7.51202 17.424 7.51895 17.4182 7.52476L14.9747 9.96826ZM8.7557 9.82276L10.8772 11.9443L15.8897 6.93176L13.7687 4.81026L8.7557 9.82276Z" fill="#0071B3"/>
<path d="M4.75 17.5593H9.25C9.664 17.5593 10 17.2238 10 16.8093C10 16.3948 9.664 16.0593 9.25 16.0593H4.75C4.3355 16.0593 4 16.3948 4 16.8093C4 17.2238 4.3355 17.5593 4.75 17.5593Z" fill="#0071B3"/>
<path d="M10.75 18.5048H3.25C2.8355 18.5048 2.5 18.8403 2.5 19.2548C2.5 19.6693 2.8355 20.0048 3.25 20.0048H10.75C11.164 20.0048 11.5 19.6693 11.5 19.2548C11.5 18.8403 11.164 18.5048 10.75 18.5048Z" fill="#0071B3"/>
</svg>
