<svg width="24" height="24" viewBox="0 0 24 24" fill="none" xmlns="http://www.w3.org/2000/svg">
<path fill-rule="evenodd" clip-rule="evenodd" d="M21 5.255C21.0014 5.05522 20.9229 4.86317 20.7821 4.72144C20.6413 4.5797 20.4498 4.5 20.25 4.5H11.75C11.4481 4.49933 11.1755 4.681 11.06 4.96C11.0196 5.05128 10.9991 5.15016 11 5.25V9H7.50003C7.19847 9.00067 6.92663 9.18189 6.81003 9.46C6.76958 9.55128 6.74912 9.65016 6.75003 9.75V13.5H3.25003C2.94847 13.5007 2.67663 13.6819 2.56003 13.96C2.51958 14.0513 2.49912 14.1502 2.50003 14.25V18.75C2.50003 19.1642 2.83582 19.5 3.25003 19.5H20.25C20.6642 19.5 21 19.1642 21 18.75V5.255ZM4.00003 15H11V18H4.00003V15ZM19.5 10.5V13.5H16.75V10.5H19.5ZM15.25 10.5V13.5H8.25003V10.5H15.25ZM12.51 15H19.51V18H12.51V15ZM12.51 6H19.51V9H12.51V6Z" fill="#333333"/>
</svg>
