<svg width="24" height="24" viewBox="0 0 24 24" fill="none" xmlns="http://www.w3.org/2000/svg">
<path d="M12.75 5C12.75 4.58579 12.4142 4.25 12 4.25C9.92893 4.25 8.25 5.92893 8.25 8C8.25 8.41421 8.58579 8.75 9 8.75C9.41421 8.75 9.75 8.41421 9.75 8C9.75 6.75736 10.7574 5.75 12 5.75C12.4142 5.75 12.75 5.41421 12.75 5Z" fill="#0071B3"/>
<path fill-rule="evenodd" clip-rule="evenodd" d="M9.21484 17.0992C9.84296 17.3664 11.1047 17.5 12 17.5C12.8953 17.5 14.1571 17.3664 14.7852 17.0992C14.9207 17.0415 15.0362 16.9453 15.1174 16.8225C17.3199 13.4886 18.1423 11.4776 18.4238 10.7892C18.4407 10.7478 18.4557 10.7112 18.4689 10.6794C18.8111 9.85408 19 8.9491 19 8C19 4.13401 15.866 1 12 1C8.13401 1 5 4.13401 5 8C5 8.9491 5.18889 9.85408 5.53112 10.6794C5.5443 10.7112 5.55926 10.7478 5.57617 10.7891C5.85765 11.4775 6.68007 13.4886 8.88266 16.8225C8.96382 16.9453 9.07935 17.0416 9.21484 17.0992ZM17.5 8C17.5 8.73338 17.3572 9.44426 17.0833 10.1048C17.072 10.1321 17.0583 10.166 17.0418 10.2066C16.8064 10.7879 16.0191 12.7324 13.9987 15.7943C13.5996 15.9281 12.6009 16 12 16C11.3991 16 10.4004 15.9281 10.0013 15.7943C7.98087 12.7324 7.19355 10.7879 6.95818 10.2066C6.94175 10.166 6.928 10.1321 6.91671 10.1048C6.6428 9.44426 6.5 8.73338 6.5 8C6.5 4.96243 8.96243 2.5 12 2.5C15.0376 2.5 17.5 4.96243 17.5 8Z" fill="#0071B3"/>
<path d="M11.3064 20.9737C10.8772 20.939 10.315 21.5353 10.4625 21.9399C10.4871 22.0075 10.5275 22.0682 10.5866 22.1093C10.7691 22.2361 11.2403 22.5 12 22.5C12.7597 22.5 13.2309 22.2361 13.4134 22.1093C13.4725 22.0682 13.5129 22.0075 13.5375 21.9399C13.685 21.5353 13.1228 20.939 12.6936 20.9737C12.4908 20.9901 12.2605 21 12 21C11.7395 21 11.5092 20.9901 11.3064 20.9737Z" fill="#0071B3"/>
<path d="M9.42586 19.2815C9.34212 18.7784 9.79941 18.3384 10.3054 18.4029C10.7749 18.4628 11.365 18.5147 12 18.5147C12.6356 18.5147 13.2264 18.463 13.6961 18.4035C14.2016 18.3394 14.658 18.7792 14.5742 19.2818C14.5289 19.5538 14.3312 19.7744 14.0604 19.8266C13.6294 19.9098 12.9059 20.0147 12 20.0147C11.0943 20.0147 10.3708 19.9098 9.93976 19.8267C9.66888 19.7744 9.47116 19.5537 9.42586 19.2815Z" fill="#0071B3"/>
</svg>
