<svg width="24" height="24" viewBox="0 0 24 24" fill="none" xmlns="http://www.w3.org/2000/svg">
<path fill-rule="evenodd" clip-rule="evenodd" d="M13 18V21.5H14.2522C14.6652 21.5 15 21.8329 15 22.25C15 22.6642 14.6602 23 14.2522 23H9.74777C9.33479 23 9 22.6671 9 22.25C9 21.8358 9.33978 21.5 9.74777 21.5H11V18H6.49555C5.66958 18 5 17.3284 5 16.496V4.50397C5 3.67335 5.67089 3 6.49555 3H11V2.00244C11 1.44881 11.4439 1 12 1C12.5523 1 13 1.44695 13 2.00244V3H17.5045C18.3304 3 19 3.67156 19 4.50397V16.496C19 17.3267 18.3291 18 17.5045 18H13ZM17.5 4.50397C17.5 4.50114 6.49555 4.5 6.49555 4.5C6.50055 4.5 6.5 16.496 6.5 16.496C6.5 16.4989 17.5045 16.5 17.5045 16.5C17.5012 16.5 17.5 4.50397 17.5 4.50397ZM8 8.24929C8 7.83547 8.33356 7.5 8.75262 7.5H15.2474C15.663 7.5 16 7.83251 16 8.24929V9.75071C16 10.1645 15.6664 10.5 15.2474 10.5H8.75262C8.33696 10.5 8 10.1675 8 9.75071V8.24929Z" fill="#0071B3"/>
</svg>
