<svg width="24" height="24" viewBox="0 0 24 24" fill="none" xmlns="http://www.w3.org/2000/svg">
<path d="M19.5001 4.92998C18.5606 4.02118 17.3072 3.50908 16.0001 3.49998C14.9176 3.49633 13.8638 3.8476 13.0001 4.49998C12.6215 4.78476 12.2848 5.12139 12.0001 5.49998C11.7153 5.12139 11.3787 4.78476 11.0001 4.49998C10.1376 3.84386 9.08376 3.48859 8.00006 3.48859C6.91637 3.48859 5.86256 3.84386 5.00006 4.49998C4.37618 4.96298 3.87004 5.56634 3.52259 6.26124C3.17514 6.95614 2.99613 7.72307 3.00006 8.49998C3.00006 16 11.0001 20.5 12.0001 20.5C13.0001 20.5 21.0001 16 21.0001 8.49998C21 7.83508 20.8673 7.17687 20.6097 6.56387C20.3521 5.95088 19.9749 5.39541 19.5001 4.92998ZM12.0001 18.93C9.31722 17.6026 7.09973 15.4932 5.64006 12.88C4.90844 11.5348 4.51706 10.0311 4.50006 8.49998C4.50039 7.69661 4.77707 6.91781 5.28367 6.2943C5.79027 5.67079 6.49595 5.24055 7.28225 5.07579C8.06854 4.91102 8.88758 5.02177 9.60188 5.38944C10.3162 5.75711 10.8822 6.35932 11.2051 7.09498C11.2351 7.16498 11.2601 7.23998 11.2901 7.31498C11.3403 7.46205 11.4353 7.58973 11.5617 7.68014C11.6881 7.77054 11.8396 7.81915 11.9951 7.81915C12.1505 7.81915 12.302 7.77054 12.4284 7.68014C12.5548 7.58973 12.6498 7.46205 12.7001 7.31498C12.7251 7.23998 12.7551 7.16498 12.7851 7.09498C13.1042 6.35319 13.67 5.74458 14.3866 5.37231C15.1032 5.00005 15.9265 4.88702 16.7169 5.0524C17.5073 5.21778 18.2162 5.65139 18.7235 6.27973C19.2307 6.90806 19.5051 7.69247 19.5001 8.49998C19.4872 10.0396 19.0956 11.5524 18.3601 12.905C16.9004 15.5182 14.6829 17.6276 12.0001 18.955V18.93Z" fill="white"/>
</svg>
