<svg width="24" height="24" viewBox="0 0 24 24" fill="none" xmlns="http://www.w3.org/2000/svg">
<path d="M12.5605 2.46821L21.1665 12.0262C21.4435 12.3342 21.4185 12.8082 21.111 13.0857C20.803 13.3627 20.329 13.3377 20.052 13.0302L11.9995 4.08671L3.94854 13.0277C3.67154 13.3357 3.19754 13.3602 2.88954 13.0832C2.58154 12.8062 2.55654 12.3317 2.83354 12.0242L11.44 2.46621C11.4478 2.45733 11.4574 2.45137 11.467 2.44544C11.4747 2.44068 11.4824 2.43594 11.489 2.42971C11.5014 2.41832 11.5147 2.40913 11.5282 2.39986C11.536 2.39448 11.5438 2.38908 11.5515 2.38321C11.6095 2.33871 11.67 2.29971 11.7355 2.27471C11.7578 2.26617 11.7806 2.26149 11.8036 2.25678C11.8116 2.25515 11.8196 2.25351 11.8275 2.25171C11.8875 2.23721 11.9475 2.22571 12.0085 2.22571C12.0431 2.22655 12.0774 2.23309 12.1115 2.23962C12.1179 2.24083 12.1242 2.24204 12.1305 2.24321C12.1805 2.25221 12.2305 2.26121 12.2785 2.28021C12.328 2.30021 12.3735 2.33171 12.4185 2.36321C12.4256 2.36801 12.4327 2.37271 12.4398 2.3774C12.4673 2.39567 12.4948 2.41384 12.519 2.43771C12.5248 2.4432 12.5314 2.44722 12.5381 2.45127C12.5461 2.45606 12.554 2.46089 12.5605 2.46821Z" fill="white"/>
<path d="M6.50029 20.2743H17.5003V11.6948L19.0003 13.3608V21.0243C19.0003 21.4378 18.6653 21.7733 18.2518 21.7743H5.75029C5.33579 21.7743 5.00029 21.4388 5.00029 21.0243V13.3613L6.50029 11.6953V20.2743Z" fill="white"/>
</svg>
