<svg width="24" height="24" viewBox="0 0 24 24" fill="none" xmlns="http://www.w3.org/2000/svg">
<path fill-rule="evenodd" clip-rule="evenodd" d="M10.0557 20.8916C9.76275 21.1821 9.28875 21.1816 8.99725 20.8896C8.70575 20.5981 8.70525 20.1241 8.99525 19.8316L8.99725 19.8291L9.88175 18.9446L10.9423 20.0051L10.0557 20.8916ZM7.93625 18.7686C7.93575 18.7691 7.93475 18.7696 7.93425 18.7706C7.64175 19.0606 7.16775 19.0601 6.87575 18.7686C6.58425 18.4766 6.58375 18.0026 6.87375 17.7101C6.87475 17.7096 6.87525 17.7086 6.87575 17.7081L7.40675 17.1766L7.76025 16.8236C7.76075 16.8236 7.76075 16.8231 7.76075 16.8231C8.05325 16.5306 8.52875 16.5311 8.82125 16.8231C9.11375 17.1156 9.11375 17.5916 8.82125 17.8841L7.93625 18.7686ZM6.70025 15.7626H6.69975L5.81525 16.6471C5.81425 16.6481 5.81375 16.6481 5.81275 16.6491C5.52025 16.9396 5.04625 16.9391 4.75475 16.6471C4.46275 16.3556 4.46225 15.8816 4.75275 15.5886L5.63925 14.7016L5.91375 14.4276L7.40675 12.9341C7.69925 12.6416 8.17525 12.6416 8.46775 12.9341C8.75975 13.2266 8.75975 13.7021 8.46775 13.9946C8.46725 13.9946 8.46725 13.9951 8.46725 13.9951L6.70025 15.7626ZM17.1297 18.7676C17.3167 18.5806 17.4552 18.3661 17.5623 18.1401C17.6903 17.8711 17.7623 17.5851 17.7773 17.2941C18.0688 17.2791 18.3547 17.2071 18.6232 17.0791C18.8492 16.9716 19.0642 16.8336 19.2507 16.6466C19.4377 16.4596 19.5763 16.2446 19.6838 16.0191C20.0468 15.2556 19.9573 14.3366 19.4132 13.6556L22.4322 10.6371C22.4322 10.6366 22.4328 10.6366 22.4333 10.6361C22.4333 10.6356 22.4333 10.6356 22.4338 10.6351C22.7257 10.3421 22.7257 9.86762 22.4333 9.57512C22.1403 9.28262 21.6652 9.28262 21.3722 9.57512L18.3668 12.5806L12.3567 6.57012L12.5332 6.39362C12.8263 6.10062 12.8263 5.62562 12.5332 5.33262C12.2402 5.04012 11.7657 5.04012 11.4727 5.33262L10.0317 6.77362L9.89775 6.90812L8.99825 7.80662L8.99725 7.80812C8.70475 8.10012 8.22925 8.09962 7.93725 7.80762C7.64525 7.51512 7.64475 7.04012 7.93675 6.74762L9.12475 5.55962L9.17425 5.50962L11.4727 3.21112C11.5347 3.14912 11.6062 3.10362 11.6812 3.06762C11.9597 2.93512 12.3027 2.98112 12.5332 3.21112L14.3013 4.97912C14.5943 5.27212 15.0693 5.27212 15.3617 4.97912L15.8923 4.44912L16.0697 4.27112C16.3573 3.98362 16.3608 3.52212 16.0837 3.22812C16.0787 3.22212 16.0752 3.21612 16.0697 3.21062C16.0642 3.20512 16.0582 3.20162 16.0522 3.19662C15.7583 2.91962 15.2968 2.92312 15.0087 3.21062L14.8313 3.38812L13.5942 2.15062C13.4067 1.96362 13.1932 1.82312 12.9668 1.71762C12.6982 1.59212 12.4113 1.51812 12.1208 1.50312C12.0417 1.49912 11.9642 1.49912 11.8857 1.50312C11.5947 1.51812 11.3083 1.59212 11.0398 1.71762C10.8133 1.82312 10.5992 1.96362 10.4122 2.15062L9.88325 2.67912C9.88275 2.68012 9.88225 2.68062 9.88175 2.68112C9.88175 2.68112 9.88125 2.68112 9.88125 2.68162L9.17425 3.38812L8.64575 2.85962C8.64525 2.85912 8.64475 2.85812 8.64425 2.85762C8.64375 2.85712 8.64325 2.85712 8.64275 2.85662C8.34975 2.56512 7.87625 2.56562 7.58375 2.85762C7.29075 3.15062 7.29075 3.62562 7.58375 3.91862L8.11375 4.44912L6.87575 5.68712C6.18425 6.37862 6.04675 7.40512 6.44375 8.24062C6.55125 8.46612 6.68975 8.68112 6.87675 8.86812C7.06375 9.05512 7.27875 9.19362 7.50425 9.30112C8.33975 9.69862 9.36625 9.56012 10.0577 8.86862C10.0582 8.86862 10.0588 8.86862 10.0588 8.86812L11.2957 7.63112L18.1877 14.5231L18.1922 14.5271C18.2537 14.5891 18.2992 14.6601 18.3342 14.7346C18.4662 15.0126 18.4207 15.3556 18.1903 15.5856C17.9603 15.8156 17.6178 15.8616 17.3393 15.7296C17.2648 15.6941 17.1938 15.6486 17.1322 15.5876L17.1297 15.5856L14.6547 13.1111C14.3617 12.8181 13.8872 12.8181 13.5942 13.1111C13.3012 13.4036 13.3012 13.8786 13.5942 14.1716L16.0693 16.6466C16.0697 16.6471 16.0703 16.6481 16.0708 16.6486C16.1322 16.7106 16.1773 16.7816 16.2128 16.8561C16.3453 17.1346 16.2992 17.4771 16.0693 17.7071C15.8387 17.9371 15.4962 17.9831 15.2177 17.8511C15.1432 17.8156 15.0722 17.7701 15.0107 17.7091C15.0097 17.7081 15.0087 17.7076 15.0083 17.7071L12.5332 15.2321C12.2408 14.9396 11.7657 14.9396 11.4727 15.2321C11.1797 15.5251 11.1797 16.0001 11.4727 16.2931L13.9478 18.7676C13.9482 18.7686 13.9487 18.7696 13.9497 18.7701C14.0107 18.8316 14.0563 18.9026 14.0913 18.9771C14.2238 19.2556 14.1777 19.5981 13.9478 19.8281C13.7172 20.0586 13.3747 20.1046 13.0962 19.9721C13.0217 19.9371 12.9513 19.8916 12.8892 19.8301L10.9427 17.8841L10.5293 17.4711C10.5487 17.1026 10.4692 16.7346 10.3108 16.3946C10.2048 16.1676 10.0697 15.9501 9.88175 15.7626C9.69525 15.5756 9.47975 15.4371 9.25425 15.3296L9.52825 15.0556C9.64975 14.9341 9.75075 14.8001 9.83875 14.6601C10.1982 14.0896 10.2722 13.3946 10.0702 12.7691C9.96475 12.4421 9.78825 12.1331 9.52825 11.8736C9.27025 11.6156 8.96425 11.4431 8.64025 11.3391C8.37425 11.2531 8.09675 11.2111 7.81975 11.2256C7.28375 11.2536 6.75575 11.4641 6.34625 11.8736L5.63925 12.5806L2.28075 9.22262C2.28075 9.22212 2.28075 9.22212 2.28025 9.22162L2.27975 9.22112C1.98675 8.92912 1.51225 8.92912 1.21975 9.22162C0.92675 9.51462 0.92675 9.98962 1.21975 10.2826L4.57825 13.6411L3.69175 14.5281C3.00225 15.2201 2.86375 16.2451 3.26075 17.0801C3.36825 17.3061 3.50725 17.5211 3.69425 17.7081C3.88075 17.8951 4.09575 18.0336 4.32175 18.1406C4.59025 18.2686 4.87625 18.3406 5.16725 18.3556C5.18275 18.6466 5.25475 18.9326 5.38225 19.2011C5.48975 19.4276 5.62825 19.6421 5.81525 19.8291C6.00225 20.0161 6.21725 20.1546 6.44325 20.2621C6.71175 20.3896 6.99775 20.4616 7.28875 20.4771C7.30425 20.7681 7.37575 21.0541 7.50375 21.3226C7.61125 21.5486 7.74975 21.7636 7.93675 21.9506C8.12325 22.1376 8.33825 22.2761 8.56425 22.3836C9.39875 22.7806 10.4242 22.6426 11.1163 21.9526C11.1167 21.9516 11.1177 21.9511 11.1187 21.9506C11.1192 21.9501 11.1198 21.9491 11.1208 21.9481L12.0173 21.0516C12.6982 21.5951 13.6178 21.6846 14.3807 21.3221C14.6062 21.2146 14.8212 21.0761 15.0083 20.8891C15.1953 20.7021 15.3337 20.4871 15.4412 20.2616C15.5693 19.9926 15.6407 19.7066 15.6558 19.4156C15.9473 19.4001 16.2332 19.3281 16.5017 19.2006C16.7277 19.0931 16.9427 18.9546 17.1297 18.7676Z" fill="#333333"/>
</svg>
