<svg width="21" height="21" viewBox="0 0 21 21" fill="none" xmlns="http://www.w3.org/2000/svg">
<path d="M0 10.5C0 4.70101 4.70101 0 10.5 0C13.2848 0 15.9555 1.10625 17.9246 3.07538C19.8938 5.04451 21 7.71523 21 10.5C21 10.9258 20.9747 11.3457 20.9254 11.7583C20.5136 11.2806 20.0335 10.8634 19.5003 10.522C19.5054 9.43154 19.3122 8.32972 18.9076 7.2704C17.5761 3.78449 14.2315 1.4818 10.5 1.4818C6.76846 1.4818 3.42395 3.78449 2.09245 7.2704C0.760951 10.7563 1.71867 14.7023 4.5 17.19V15.75C4.5008 15.6823 4.51089 15.615 4.53 15.55C4.78 13.555 6.685 12 9 12H10.8762C10.5203 12.4552 10.2237 12.9591 9.99816 13.5H9C8.81745 13.5011 8.63525 13.5161 8.455 13.545C7.06 13.76 6 14.775 6 16V18.28C7.39622 19.0952 8.95857 19.501 10.5202 19.4975C10.862 20.0318 11.2797 20.5129 11.7583 20.9254C11.3457 20.9747 10.9258 21 10.5 21C4.70101 21 0 16.299 0 10.5Z" fill="white"/>
<path fill-rule="evenodd" clip-rule="evenodd" d="M6.5 7C6.5 4.79086 8.29086 3 10.5 3C11.5609 3 12.5783 3.42143 13.3284 4.17157C14.0786 4.92172 14.5 5.93913 14.5 7C14.5 9.20914 12.7091 11 10.5 11C8.29086 11 6.5 9.20914 6.5 7ZM8 7C8 8.38071 9.11929 9.5 10.5 9.5C11.8807 9.5 13 8.38071 13 7C13 5.61929 11.8807 4.5 10.5 4.5C9.11929 4.5 8 5.61929 8 7Z" fill="white"/>
<path fill-rule="evenodd" clip-rule="evenodd" d="M16.0044 21.0044C18.7658 21.0044 21.0044 18.7658 21.0044 16.0044C21.0044 13.243 18.7658 11.0044 16.0044 11.0044C13.243 11.0044 11.0044 13.243 11.0044 16.0044C11.0044 18.7658 13.243 21.0044 16.0044 21.0044ZM18.0347 13.9741C18.3276 14.267 18.3276 14.7418 18.0347 15.0347L17.0651 16.0044L18.0347 16.9741C18.3276 17.267 18.3276 17.7418 18.0347 18.0347C17.7418 18.3276 17.267 18.3276 16.9741 18.0347L16.0044 17.0651L15.0347 18.0347C14.7418 18.3276 14.267 18.3276 13.9741 18.0347C13.6812 17.7418 13.6812 17.267 13.9741 16.9741L14.9437 16.0044L13.9741 15.0347C13.6812 14.7418 13.6812 14.267 13.9741 13.9741C14.267 13.6812 14.7418 13.6812 15.0347 13.9741L16.0044 14.9437L16.9741 13.9741C17.267 13.6812 17.7418 13.6812 18.0347 13.9741Z" fill="white"/>
</svg>
