<svg width="60" height="60" viewBox="0 0 60 60" fill="none" xmlns="http://www.w3.org/2000/svg">
<rect width="60" height="60" rx="4" fill="white"/>
<path fill-rule="evenodd" clip-rule="evenodd" d="M19.012 39.0099H26.943V7.78894H22.096C21.449 7.78894 20.839 8.04194 20.38 8.49994L13.791 15.0889V34.0169C16.283 34.6599 18.266 36.5609 19.012 39.0099Z" fill="#E3E6E6"/>
<path fill-rule="evenodd" clip-rule="evenodd" d="M9.94549 0.00012207H3.49849C1.56649 0.00012207 0.000488281 1.56612 0.000488281 3.49812V11.9581L9.94549 11.9431V0.00012207Z" fill="#E3E6E6"/>
<path fill-rule="evenodd" clip-rule="evenodd" d="M8.30615 41.2732C8.30615 43.2772 9.93115 44.9002 11.9342 44.8982C13.9392 44.8972 15.5632 43.2712 15.5632 41.2662C15.5632 39.2622 13.9392 37.6392 11.9342 37.6412C9.93115 37.6432 8.30615 39.2692 8.30615 41.2732Z" fill="#E3E6E6"/>
<mask id="mask0_75_3938" style="mask-type:luminance" maskUnits="userSpaceOnUse" x="0" y="0" width="60" height="61">
<path fill-rule="evenodd" clip-rule="evenodd" d="M0 60.0001H60V0.00012207H0V60.0001Z" fill="white"/>
</mask>
<g mask="url(#mask0_75_3938)">
<path fill-rule="evenodd" clip-rule="evenodd" d="M31.5908 39.0101H48.0268V0.00012207H31.5908V39.0101Z" fill="#E3E6E6"/>
<path fill-rule="evenodd" clip-rule="evenodd" d="M17.835 5.95376C18.974 4.81576 20.487 4.18876 22.097 4.18876H26.943V-0.000244141H13.791V9.99776L17.835 5.95376Z" fill="#E3E6E6"/>
<path fill-rule="evenodd" clip-rule="evenodd" d="M9.94549 34.0549V15.4479L0.000488281 15.4629V39.0099H4.86149C5.59649 36.6099 7.52049 34.7339 9.94549 34.0549Z" fill="#E3E6E6"/>
<path fill-rule="evenodd" clip-rule="evenodd" d="M33.667 59.8563V57.0373C33.667 56.4993 33.454 55.9833 33.073 55.6033L28.253 50.7833C27.371 49.9003 26.875 48.7033 26.875 47.4553V43.3633L19.001 43.3653C18.246 45.7963 16.269 47.6833 13.791 48.3263V59.8623L9.945 59.8633V48.2963C7.527 47.6243 5.605 45.7603 4.866 43.3703L0 43.3713V56.3673C0 58.2993 1.567 59.8663 3.499 59.8653L37.732 59.8553L33.667 59.8563Z" fill="#E3E6E6"/>
<path fill-rule="evenodd" clip-rule="evenodd" d="M56.4612 0.00012207H51.9712V22.3591H59.9592V3.49812C59.9592 1.56612 58.3932 0.00012207 56.4612 0.00012207Z" fill="#E3E6E6"/>
<path fill-rule="evenodd" clip-rule="evenodd" d="M51.9722 39.0102H59.9602V26.3132H51.9722V39.0102Z" fill="#D7E37D"/>
<path fill-rule="evenodd" clip-rule="evenodd" d="M31.6216 46.5988C31.6216 47.1368 31.8346 47.6528 32.2156 48.0328L37.0356 52.8528C37.9176 53.7358 38.4136 54.9328 38.4136 56.1808V59.8548L56.4626 59.8488C58.3936 59.8488 59.9596 58.2828 59.9596 56.3508V43.3528L31.6216 43.3618V46.5988Z" fill="#D5EBF4"/>
<path fill-rule="evenodd" clip-rule="evenodd" d="M26.9609 39.0985H19.0247C18.2792 36.644 16.2938 34.7387 13.8002 34.0942V15.1232L20.3946 8.51922C20.8529 8.06018 21.4633 7.8066 22.1117 7.8066H26.9609V39.0985ZM11.9429 45.0009C9.93761 45.0029 8.31153 43.3762 8.31153 41.3667C8.31153 39.3581 9.93761 37.7284 11.9429 37.7264C13.9483 37.7244 15.5744 39.3511 15.5744 41.3596C15.5744 43.3692 13.9483 44.9989 11.9429 45.0009ZM60 26.3727V22.4097H52.0067V-0.00012207H48.059V39.0985H31.6121V-0.00012207H26.961V4.19839H22.1117C20.5007 4.19839 18.9867 4.82682 17.8469 5.9674L13.8002 10.0206V-0.00012207H9.95163V11.971L0 11.985V15.498L9.95163 15.483V34.1322C7.52602 34.8128 5.59973 36.6931 4.86424 39.0985H0V43.4694L4.86925 43.4684C5.60974 45.8638 7.53202 47.7321 9.95163 48.4056V59.9999L13.8002 59.9979V48.4357C16.2799 47.7912 18.2582 45.8999 19.0147 43.4634L26.8929 43.4614V47.5627C26.8929 48.8135 27.3893 50.0132 28.2728 50.8982L33.0951 55.7292C33.4763 56.1111 33.6895 56.6272 33.6895 57.1665V59.9919L38.4396 59.9909V56.3085C38.4396 55.0577 37.9433 53.858 37.0597 52.9729L32.2365 48.142C31.8562 47.7611 31.6431 47.244 31.6431 46.7047V43.4604L60 43.4514V39.0985H52.0067V26.3727H60Z" fill="white"/>
</g>
<rect x="0.5" y="0.5" width="59" height="59" rx="3.5" stroke="#E6E6E6"/>
<path fill-rule="evenodd" clip-rule="evenodd" d="M34.7664 41.0136C34.7664 41.6743 32.6698 42.2102 30.0858 42.2102C27.4989 42.2102 25.4038 41.6743 25.4038 41.0136C25.4038 40.3529 27.4989 39.817 30.0858 39.817C32.6698 39.817 34.7664 40.3529 34.7664 41.0136Z" fill="#EDEFEF"/>
<path d="M30 13.6775C31.2865 13.6775 32.56 13.9355 33.7451 14.4363C34.9304 14.9371 36.0036 15.6708 36.9004 16.5935C37.7972 17.5162 38.4999 18.6094 38.9668 19.8083C39.4337 21.0073 39.6557 22.2879 39.6191 23.574C39.6191 31.3862 31.0335 39.722 30.417 40.3152C30.3158 40.4044 30.1856 40.4538 30.0508 40.4539C29.9157 40.4539 29.7848 40.4046 29.6836 40.3152C29.0748 39.7064 20.4745 31.5267 20.3809 23.574C20.3443 22.2879 20.5663 21.0073 21.0332 19.8083C21.5001 18.6094 22.2029 17.5162 23.0996 16.5935C23.9964 15.6709 25.0688 14.9371 26.2539 14.4363C27.4392 13.9354 28.7132 13.6775 30 13.6775Z" fill="#FF9B21"/>
<circle cx="29.995" cy="23.3303" r="3.68295" fill="white"/>
</svg>
