<svg width="24" height="24" viewBox="0 0 24 24" fill="none" xmlns="http://www.w3.org/2000/svg">
<path d="M20.9695 13.36C21.278 13.0825 21.303 12.6085 21.026 12.3L12.4195 2.742C12.4131 2.73469 12.4048 2.72975 12.3966 2.72478C12.3902 2.72091 12.3837 2.71703 12.378 2.712C12.3524 2.68634 12.3231 2.6669 12.2932 2.64711C12.2882 2.64376 12.2831 2.6404 12.278 2.637C12.233 2.6055 12.187 2.574 12.138 2.554C12.09 2.535 12.04 2.526 11.99 2.517C11.9842 2.51592 11.9785 2.5148 11.9727 2.51369C11.9384 2.50708 11.904 2.50043 11.868 2.5C11.807 2.5 11.747 2.511 11.688 2.525C11.6784 2.52729 11.6688 2.52931 11.6592 2.53131C11.6374 2.53586 11.6159 2.54036 11.595 2.548C11.53 2.573 11.469 2.613 11.411 2.657C11.4029 2.66348 11.3943 2.6693 11.3857 2.67516C11.373 2.68378 11.3601 2.69249 11.3485 2.7035C11.3415 2.71053 11.3334 2.71558 11.3253 2.72061C11.3161 2.72632 11.307 2.732 11.2995 2.7405L2.69253 12.298C2.41553 12.6055 2.44053 13.08 2.74753 13.357C3.05603 13.634 3.53003 13.6095 3.80753 13.302L11.8575 4.3605L19.9105 13.305C20.1875 13.612 20.662 13.637 20.9695 13.36Z" fill="#0071B3"/>
<path d="M17.358 11.4685V20.048H6.35803V11.469L4.85803 13.135V20.798C4.85803 21.212 5.19403 21.548 5.60803 21.548H18.1095C18.523 21.547 18.858 21.2115 18.858 20.798V13.1345L17.358 11.4685Z" fill="#0071B3"/>
<path d="M10.5065 14.773C10.9408 15.3839 11.6596 15.7855 12.4731 15.7855C13.074 15.7855 13.6225 15.5654 14.0442 15.2043L14.3595 16.2394C13.8182 16.5921 13.1704 16.798 12.4731 16.798C11.0676 16.798 9.86098 15.9644 9.33205 14.773H8.87372C8.59057 14.773 8.35953 14.5452 8.35953 14.2668C8.35953 13.9883 8.59057 13.7605 8.87372 13.7605H9.06226C9.05095 13.6491 9.04512 13.5371 9.04512 13.423C9.04512 13.3089 9.05095 13.1969 9.06226 13.0855H8.87372C8.59057 13.0855 8.35953 12.8577 8.35953 12.5793C8.35953 12.3008 8.59057 12.073 8.87372 12.073H9.33205C9.86098 10.8816 11.0676 10.048 12.4731 10.048C13.17 10.048 13.8179 10.2539 14.3592 10.6062L14.0438 11.641C13.6222 11.2806 13.0737 11.0605 12.4728 11.0605C11.6596 11.0605 10.9408 11.4621 10.5065 12.073H12.6445C12.927 12.073 13.1587 12.3008 13.1587 12.5793C13.1587 12.8577 12.927 13.0855 12.6445 13.0855H10.1009C10.0845 13.1959 10.0735 13.3083 10.0735 13.423C10.0735 13.5378 10.0845 13.6498 10.1009 13.7605H12.6445C12.927 13.7605 13.1587 13.9883 13.1587 14.2668C13.1587 14.5452 12.927 14.773 12.6445 14.773H10.5065Z" fill="#0071B3"/>
</svg>
