<svg width="24" height="24" viewBox="0 0 24 24" fill="none" xmlns="http://www.w3.org/2000/svg">
<path d="M19.25 11.5C19.6642 11.5 20 11.1642 20 10.75C20 10.3358 19.6642 10 19.25 10C18.8358 10 18.5 10.3358 18.5 10.75C18.5 11.1642 18.8358 11.5 19.25 11.5Z" fill="#0071B3"/>
<path fill-rule="evenodd" clip-rule="evenodd" d="M21.25 8H18V3.75C18 3.33579 17.6642 3 17.25 3H6.75C6.33579 3 6 3.33579 6 3.75V8H2.75C2.33579 8 2 8.33579 2 8.75V16.25C2 16.6642 2.33579 17 2.75 17H6V20.25C6 20.6642 6.33579 21 6.75 21H17.25C17.6642 21 18 20.6642 18 20.25V17H21.25C21.6642 17 22 16.6642 22 16.25V8.75C22 8.33579 21.6642 8 21.25 8ZM7.5 4.5H16.5V8H7.5V4.5ZM16.5 19.5V14H7.5V19.5H16.5ZM17.67 12.63C17.5463 12.5454 17.3999 12.5001 17.25 12.5H6.75C6.33579 12.5 6 12.8358 6 13.25V15.5H3.5V9.5H20.5V15.5H18V13.25C17.9995 13.0014 17.876 12.7692 17.67 12.63Z" fill="#0071B3"/>
</svg>
