<svg width="24" height="24" viewBox="0 0 24 24" fill="none" xmlns="http://www.w3.org/2000/svg">
<path fill-rule="evenodd" clip-rule="evenodd" d="M20.6967 11.625C20.6321 11.5258 20.5447 11.4435 20.4417 11.385L20.3867 11.34L7.77669 3.15003L7.69669 3.11003H7.65169L7.56169 3.08003H7.50669L7.41669 3.03003H7.21169C7.00704 3.06402 6.82584 3.18181 6.71169 3.35503C6.69251 3.38704 6.67579 3.42047 6.66169 3.45503C6.64738 3.48909 6.63568 3.52419 6.62669 3.56003V3.60003C6.62444 3.63332 6.62444 3.66673 6.62669 3.70003C6.62669 3.70003 6.62669 3.73003 6.62669 3.74503V20.245C6.62669 20.245 6.62669 20.275 6.62669 20.29C6.62445 20.3233 6.62445 20.3567 6.62669 20.39V20.43C6.63568 20.4659 6.64738 20.501 6.66169 20.535C6.67719 20.5714 6.69558 20.6066 6.71669 20.64C6.83084 20.8133 7.01204 20.931 7.21669 20.965H7.56669L7.65669 20.935H7.69669L7.77669 20.895L20.4817 12.645C20.8165 12.4185 20.9116 11.9674 20.6967 11.625ZM8.11669 5.16003L18.6967 12.03L8.11669 18.9V5.16003Z" fill="white"/>
</svg>
