<svg width="24" height="24" viewBox="0 0 24 24" fill="none" xmlns="http://www.w3.org/2000/svg">
<path d="M11.2045 9.415C11.2045 9.00079 11.5403 8.665 11.9545 8.665C12.3687 8.665 12.7045 9.00079 12.7045 9.415V15.415C12.7045 15.8292 12.3687 16.165 11.9545 16.165C11.5403 16.165 11.2045 15.8292 11.2045 15.415V9.415Z" fill="#0071B3"/>
<path d="M11.9545 17.165C11.5403 17.165 11.2045 17.5008 11.2045 17.915C11.2045 18.3292 11.5403 18.665 11.9545 18.665C12.3687 18.665 12.7045 18.3292 12.7045 17.915C12.7045 17.5008 12.3687 17.165 11.9545 17.165Z" fill="#0071B3"/>
<path fill-rule="evenodd" clip-rule="evenodd" d="M22.8895 21.225L22.8495 21.295L22.7945 21.38L22.7445 21.445L22.6995 21.49L22.6395 21.54L22.5795 21.585H22.5395L22.4695 21.615H1.45448L1.35948 21.56H1.31948L1.25448 21.515L1.19948 21.47L1.14948 21.415L1.10448 21.36L1.06448 21.295L1.02948 21.235C1.01999 21.2121 1.01164 21.1887 1.00448 21.165V21.03C1.00304 21.0034 1.00304 20.9766 1.00448 20.95V20.88C0.998507 20.8302 0.998507 20.7798 1.00448 20.73V20.665L1.05448 20.575V20.54L11.3695 2.78L11.3945 2.745L11.4395 2.685L11.4895 2.63L11.5395 2.585L11.6095 2.535H11.6445L11.7195 2.5H12.2745L12.3495 2.535H12.3845L12.4545 2.585L12.4845 2.61L12.5345 2.665L12.5795 2.75L12.6045 2.785L22.8595 20.56V20.6L22.8895 20.67C22.8907 20.695 22.8907 20.72 22.8895 20.745V20.81C22.8913 20.84 22.8913 20.87 22.8895 20.9V20.935C22.8913 20.965 22.8913 20.995 22.8895 21.025V21.085C22.8909 21.1116 22.8909 21.1384 22.8895 21.165V21.225ZM20.9045 20.165L11.9545 4.665L3.00448 20.165H20.9045Z" fill="#0071B3"/>
</svg>
