<svg width="278" height="36" viewBox="0 0 278 36" fill="none" xmlns="http://www.w3.org/2000/svg">
<path d="M74.7735 36H0L6.05989 13.3495C8.16532 5.47485 15.2978 0 23.4469 0H98.2204L92.1605 22.6506C90.0551 30.5233 82.9226 35.9982 74.7717 35.9982L74.7735 36Z" fill="#FF9B21"/>
<path d="M9.72191 14.3498L4.96753 32.1232H74.8549C81.2506 32.1232 86.8465 27.8256 88.4986 21.6484L93.253 3.875H23.3657C16.9699 3.875 11.3741 8.17254 9.72191 14.3498Z" fill="#6A281C"/>
<path fill-rule="evenodd" clip-rule="evenodd" d="M69.7357 26.1319C70.4832 26.791 71.5251 27.1196 72.8559 27.1196C73.8129 27.1196 74.6814 26.9246 75.4597 26.5364C76.2271 26.159 76.8284 25.6696 77.2581 25.0684C77.2708 25.0503 77.2997 25.0593 77.2997 25.081V26.8271C77.2997 26.8524 77.3195 26.8722 77.3448 26.8722H80.2411C80.2664 26.8722 80.2863 26.8524 80.2863 26.8271V19.4184C80.2863 17.8763 79.8006 16.6719 78.8273 15.8034C77.854 14.9348 76.4691 14.5015 74.6742 14.5015C73.3127 14.5015 72.1661 14.7633 71.2398 15.2869C70.8263 15.5181 70.4435 15.7799 70.0896 16.0724C70.0697 16.0887 70.0679 16.1176 70.0842 16.1356L71.8032 18.1742C71.8194 18.1941 71.8483 18.1959 71.8682 18.1797C72.3882 17.7246 72.9046 17.4483 73.3849 17.2876C73.7533 17.1522 74.1758 17.0836 74.6525 17.0836C75.5355 17.0836 76.1946 17.2858 76.628 17.6903C77.0613 18.0948 77.2798 18.6257 77.2798 19.2847V19.3967C77.2798 19.422 77.26 19.4418 77.2347 19.4418H74.091C72.399 19.4418 71.0683 19.8012 70.095 20.5198C69.1217 21.2385 68.636 22.2334 68.636 23.5064C68.636 24.5844 69.0025 25.4602 69.7357 26.1337V26.1319ZM74.8548 24.4039C74.4954 24.5086 74.1289 24.561 73.7551 24.561C72.4984 24.561 71.87 24.1204 71.87 23.2356C71.87 22.7571 72.065 22.3833 72.4532 22.1124C72.8577 21.8434 73.524 21.708 74.4521 21.708H77.2473C77.2762 21.708 77.2979 21.7351 77.2907 21.7621C77.1931 22.2027 77.0505 22.6993 76.7273 23.1417C76.5142 23.4324 76.1802 23.7574 75.866 23.9524C75.5518 24.1474 75.2141 24.2973 74.8548 24.4021V24.4039Z" fill="white"/>
<path fill-rule="evenodd" clip-rule="evenodd" d="M57.3162 26.6899C58.0259 26.977 58.7572 27.1196 59.5101 27.1196C60.3101 27.1196 61.0323 26.9535 61.6824 26.6212C62.3252 26.2854 62.8615 25.8285 63.293 25.2525C63.3057 25.2345 63.3346 25.2435 63.3346 25.2652V26.8253C63.3346 26.8506 63.3544 26.8704 63.3797 26.8704H66.3663C66.3916 26.8704 66.4115 26.8506 66.4115 26.8253V9.06815C66.4115 9.04287 66.3916 9.02301 66.3663 9.02301H63.3797C63.3544 9.02301 63.3346 9.04287 63.3346 9.06815V16.1483C63.3346 16.1699 63.3075 16.179 63.293 16.1627C62.8777 15.6156 62.3559 15.1894 61.7275 14.8825C61.0937 14.5665 60.3696 14.4076 59.5553 14.4076C58.7409 14.4076 58.0168 14.5592 57.2927 14.8608C56.5831 15.1479 55.9583 15.5704 55.4148 16.1284C54.8713 16.6863 54.4343 17.3581 54.1021 18.1417C53.7861 18.9254 53.6272 19.8012 53.6272 20.7654C53.6272 21.7296 53.7933 22.6289 54.1256 23.4125C54.4578 24.1818 54.8948 24.8444 55.4383 25.4024C55.9818 25.9604 56.6066 26.3901 57.3162 26.6917V26.6899ZM60.1313 24.1836C62.0381 24.1836 63.5838 22.6379 63.5838 20.7311C63.5838 18.8243 62.0381 17.2768 60.1313 17.2768C58.2245 17.2768 56.6788 18.8225 56.6788 20.7311C56.6788 22.6397 58.2245 24.1836 60.1313 24.1836Z" fill="white"/>
<path d="M40.1296 14.7019C40.1296 14.6766 40.1495 14.6568 40.1748 14.6568H43.2065C43.2318 14.6568 43.2517 14.6766 43.2517 14.7019V16.123C43.2517 16.1447 43.2806 16.1537 43.2932 16.1356C43.6796 15.6048 44.1617 15.1876 44.745 14.8825C45.3625 14.5665 46.0577 14.4076 46.8269 14.4076C48.2751 14.4076 49.4217 14.8608 50.265 15.7655C51.1245 16.6557 51.5542 17.8998 51.5542 19.4978V26.8271C51.5542 26.8524 51.5344 26.8723 51.5091 26.8723H48.4177C48.3925 26.8723 48.3726 26.8524 48.3726 26.8271V19.738C48.3726 18.3295 47.2314 17.1884 45.823 17.1884C44.4145 17.1884 43.2733 18.3295 43.2733 19.738V26.8271C43.2733 26.8524 43.2535 26.8723 43.2282 26.8723H40.1766C40.1513 26.8723 40.1314 26.8524 40.1314 26.8271V14.7019H40.1296Z" fill="white"/>
<path d="M29.2775 14.7019C29.2775 14.6766 29.2576 14.6567 29.2323 14.6567H26.1428C26.1175 14.6567 26.0977 14.6766 26.0977 14.7019V21.986C26.0977 23.6003 26.513 24.8589 27.3418 25.7635C28.1706 26.6682 29.3407 27.1214 30.8484 27.1214C31.6032 27.1214 32.2803 26.9625 32.8834 26.6465C33.4649 26.3413 33.9488 25.9224 34.3352 25.3934C34.3478 25.3753 34.3767 25.3843 34.3767 25.406V26.8271C34.3767 26.8524 34.3966 26.8722 34.4219 26.8722L37.4536 26.8505C37.4789 26.8505 37.4988 26.8307 37.4988 26.8054V14.6802C37.4988 14.6549 37.4789 14.6351 37.4536 14.6351L34.3785 14.6567C34.3533 14.6567 34.3334 14.6766 34.3334 14.7019V21.838C34.3334 23.2338 33.2012 24.3659 31.8054 24.3659C30.4096 24.3659 29.2775 23.2338 29.2775 21.838V14.7019Z" fill="white"/>
<path d="M24.6873 9.10249C24.6945 9.07359 24.6729 9.04651 24.644 9.04651H23.1543C22.1594 9.04651 21.3215 9.12957 20.6426 9.29569C19.9799 9.46182 19.4436 9.74892 19.0373 10.1552C18.6455 10.547 18.3584 11.0743 18.1778 11.7388C18.0117 12.4015 17.9286 13.2321 17.9286 14.227V14.6116C17.9286 14.6369 17.9088 14.6568 17.8835 14.6568H15.9604C15.9351 14.6568 15.9153 14.6766 15.9153 14.7019V17.4159C15.9153 17.4412 15.9351 17.461 15.9604 17.461H17.8835C17.9088 17.461 17.9286 17.4809 17.9286 17.5062V26.8271C17.9286 26.8524 17.9485 26.8723 17.9738 26.8723H20.982C21.0073 26.8723 21.0272 26.8524 21.0272 26.8271V17.5062C21.0272 17.4809 21.047 17.461 21.0723 17.461H23.9235C23.9488 17.461 23.9687 17.4412 23.9687 17.4159V14.7019C23.9687 14.6766 23.9488 14.6568 23.9235 14.6568H21.0723C21.047 14.6568 21.0272 14.6369 21.0272 14.6116V14.0681C21.0272 13.6005 21.0489 13.2303 21.0958 12.9594C21.1409 12.6723 21.2457 12.4538 21.4118 12.304C21.5924 12.1378 21.8416 12.0331 22.1575 11.988C22.4735 11.9284 22.9033 11.8977 23.4468 11.8977H23.9325C23.9524 11.8977 23.9705 11.8832 23.9759 11.8634L24.6855 9.10429L24.6873 9.10249Z" fill="white"/>
<path d="M272.461 27.24C270.821 27.24 269.321 26.72 268.321 25.74L269.281 24.22C269.961 24.92 271.301 25.58 272.561 25.58C273.821 25.58 274.461 25.04 274.461 24.28C274.461 23.48 273.441 23.26 272.261 23C270.601 22.64 268.621 22.2 268.621 20.04C268.621 18.46 269.981 17.1 272.421 17.1C274.061 17.1 275.301 17.68 276.181 18.46L275.301 19.94C274.721 19.28 273.641 18.78 272.441 18.78C271.341 18.78 270.641 19.28 270.641 19.96C270.641 20.66 271.601 20.86 272.741 21.12C274.421 21.48 276.481 21.96 276.481 24.24C276.481 25.94 275.061 27.24 272.461 27.24Z" fill="#333333"/>
<path d="M264.327 27H262.227V17.34H264.327V18.76C265.047 17.84 266.207 17.12 267.467 17.12V19.2C267.287 19.16 267.067 19.14 266.807 19.14C265.927 19.14 264.747 19.74 264.327 20.42V27Z" fill="#333333"/>
<path d="M255.554 27.24C252.654 27.24 250.494 25.22 250.494 22.16C250.494 19.36 252.534 17.1 255.394 17.1C258.294 17.1 260.154 19.32 260.154 22.36V22.86H252.694C252.854 24.32 253.954 25.52 255.774 25.52C256.714 25.52 257.834 25.14 258.514 24.46L259.474 25.84C258.514 26.76 257.094 27.24 255.554 27.24ZM258.114 21.38C258.074 20.24 257.294 18.82 255.394 18.82C253.594 18.82 252.774 20.2 252.674 21.38H258.114Z" fill="#333333"/>
<path d="M248.373 27H246.273V25.68C245.533 26.64 244.413 27.24 243.173 27.24C240.693 27.24 238.873 25.36 238.873 22.18C238.873 19.06 240.673 17.1 243.173 17.1C244.373 17.1 245.493 17.66 246.273 18.68V13.66H248.373V27ZM243.773 25.38C244.773 25.38 245.793 24.82 246.273 24.1V20.26C245.793 19.54 244.773 18.96 243.773 18.96C242.113 18.96 241.053 20.3 241.053 22.18C241.053 24.04 242.113 25.38 243.773 25.38Z" fill="#333333"/>
<path d="M234.64 27H232.54V17.34H234.64V18.76C235.36 17.84 236.52 17.12 237.78 17.12V19.2C237.6 19.16 237.38 19.14 237.12 19.14C236.24 19.14 235.06 19.74 234.64 20.42V27Z" fill="#333333"/>
<path d="M225.867 27.24C222.967 27.24 220.807 25.22 220.807 22.16C220.807 19.36 222.847 17.1 225.707 17.1C228.607 17.1 230.467 19.32 230.467 22.36V22.86H223.007C223.167 24.32 224.267 25.52 226.087 25.52C227.027 25.52 228.147 25.14 228.827 24.46L229.787 25.84C228.827 26.76 227.407 27.24 225.867 27.24ZM228.427 21.38C228.387 20.24 227.607 18.82 225.707 18.82C223.907 18.82 223.087 20.2 222.987 21.38H228.427Z" fill="#333333"/>
<path d="M214.734 27.24C211.834 27.24 209.674 25.22 209.674 22.16C209.674 19.36 211.714 17.1 214.574 17.1C217.474 17.1 219.334 19.32 219.334 22.36V22.86H211.874C212.034 24.32 213.134 25.52 214.954 25.52C215.894 25.52 217.014 25.14 217.694 24.46L218.654 25.84C217.694 26.76 216.274 27.24 214.734 27.24ZM217.294 21.38C217.254 20.24 216.474 18.82 214.574 18.82C212.774 18.82 211.954 20.2 211.854 21.38H217.294Z" fill="#333333"/>
<path d="M206.787 27.24C205.167 27.24 204.307 26.36 204.307 24.76V19.18H202.707V17.34H204.307V14.7H206.407V17.34H208.367V19.18H206.407V24.24C206.407 24.9 206.727 25.38 207.327 25.38C207.727 25.38 208.107 25.22 208.267 25.04L208.767 26.62C208.387 26.98 207.767 27.24 206.787 27.24Z" fill="#333333"/>
<path d="M199.054 27H196.954V17.34H199.054V18.76C199.774 17.84 200.934 17.12 202.194 17.12V19.2C202.014 19.16 201.794 19.14 201.534 19.14C200.654 19.14 199.474 19.74 199.054 20.42V27Z" fill="#333333"/>
<path d="M190.281 27.24C187.381 27.24 185.221 25.22 185.221 22.16C185.221 19.36 187.261 17.1 190.121 17.1C193.021 17.1 194.881 19.32 194.881 22.36V22.86H187.421C187.581 24.32 188.681 25.52 190.501 25.52C191.441 25.52 192.561 25.14 193.241 24.46L194.201 25.84C193.241 26.76 191.821 27.24 190.281 27.24ZM192.841 21.38C192.801 20.24 192.021 18.82 190.121 18.82C188.321 18.82 187.501 20.2 187.401 21.38H192.841Z" fill="#333333"/>
<path d="M180.562 27H178.302L174.362 17.34H176.602L179.422 24.58L182.242 17.34H184.502L180.562 27Z" fill="#333333"/>
<path d="M173.041 27H170.941V25.68C170.201 26.64 169.081 27.24 167.841 27.24C165.361 27.24 163.541 25.36 163.541 22.18C163.541 19.06 165.341 17.1 167.841 17.1C169.041 17.1 170.161 17.66 170.941 18.68V13.66H173.041V27ZM168.441 25.38C169.441 25.38 170.461 24.82 170.941 24.1V20.26C170.461 19.54 169.441 18.96 168.441 18.96C166.781 18.96 165.721 20.3 165.721 22.18C165.721 24.04 166.781 25.38 168.441 25.38Z" fill="#333333"/>
<path d="M161.419 27H159.319V25.96C158.599 26.78 157.479 27.24 156.199 27.24C154.619 27.24 152.839 26.18 152.839 24.04C152.839 21.82 154.619 20.9 156.199 20.9C157.499 20.9 158.619 21.32 159.319 22.14V20.7C159.319 19.58 158.399 18.9 157.059 18.9C155.979 18.9 155.039 19.3 154.199 20.12L153.339 18.66C154.459 17.6 155.859 17.1 157.399 17.1C159.539 17.1 161.419 18 161.419 20.6V27ZM157.019 25.8C157.939 25.8 158.839 25.46 159.319 24.8V23.34C158.839 22.68 157.939 22.34 157.019 22.34C155.839 22.34 154.959 23.02 154.959 24.08C154.959 25.12 155.839 25.8 157.019 25.8Z" fill="#333333"/>
<path d="M143.448 27H141.348V17.34H143.448V18.76C144.168 17.84 145.328 17.12 146.588 17.12V19.2C146.408 19.16 146.188 19.14 145.928 19.14C145.048 19.14 143.868 19.74 143.448 20.42V27Z" fill="#333333"/>
<path d="M134.243 27.24C131.183 27.24 129.283 24.94 129.283 22.16C129.283 19.4 131.183 17.1 134.243 17.1C137.343 17.1 139.223 19.4 139.223 22.16C139.223 24.94 137.343 27.24 134.243 27.24ZM134.243 25.38C136.043 25.38 137.043 23.88 137.043 22.16C137.043 20.46 136.043 18.96 134.243 18.96C132.463 18.96 131.463 20.46 131.463 22.16C131.463 23.88 132.463 25.38 134.243 25.38Z" fill="#333333"/>
<path d="M122.779 27.24C119.719 27.24 117.819 24.94 117.819 22.16C117.819 19.4 119.719 17.1 122.779 17.1C125.879 17.1 127.759 19.4 127.759 22.16C127.759 24.94 125.879 27.24 122.779 27.24ZM122.779 25.38C124.579 25.38 125.579 23.88 125.579 22.16C125.579 20.46 124.579 18.96 122.779 18.96C120.999 18.96 119.999 20.46 119.999 22.16C119.999 23.88 120.999 25.38 122.779 25.38Z" fill="#333333"/>
<path d="M113.16 27H110.9L106.96 17.34H109.2L112.02 24.58L114.84 17.34H117.1L113.16 27Z" fill="#333333"/>
</svg>
