<?xml version="1.0" encoding="UTF-8"?>
<svg id="Layer_1" xmlns="http://www.w3.org/2000/svg" version="1.1" viewBox="0 0 266 36">
  <!-- Generator: Adobe Illustrator 29.0.0, SVG Export Plug-In . SVG Version: 2.1.0 Build 186)  -->
  <defs>
    <style>
      .st0 {
        fill-rule: evenodd;
      }

      .st0, .st1 {
        fill: #fff;
      }

      .st2 {
        fill: #ff9b21;
      }

      .st3 {
        fill: #6a281c;
      }
    </style>
  </defs>
  <path class="st2" d="M74.8,36H0L6.1,13.3C8.2,5.5,15.3,0,23.4,0h74.8l-6.1,22.7c-2.1,7.9-9.2,13.3-17.4,13.3h0Z"/>
  <path class="st3" d="M9.7,14.3l-4.8,17.8h69.9c6.4,0,12-4.3,13.6-10.5l4.8-17.8H23.4c-6.4,0-12,4.3-13.6,10.5Z"/>
  <path class="st0" d="M69.7,26.1c.7.7,1.8,1,3.1,1s1.8-.2,2.6-.6c.8-.4,1.4-.9,1.8-1.5,0,0,0,0,0,0v1.7s0,0,0,0h2.9s0,0,0,0v-7.4c0-1.5-.5-2.7-1.5-3.6-1-.9-2.4-1.3-4.2-1.3s-2.5.3-3.4.8c-.4.2-.8.5-1.2.8,0,0,0,0,0,0l1.7,2s0,0,0,0c.5-.5,1-.7,1.5-.9.4-.1.8-.2,1.3-.2.9,0,1.5.2,2,.6.4.4.7.9.7,1.6h0c0,.1,0,.2,0,.2h-3.1c-1.7,0-3,.4-4,1.1-1,.7-1.5,1.7-1.5,3s.4,2,1.1,2.6h0ZM74.9,24.4c-.4.1-.7.2-1.1.2-1.3,0-1.9-.4-1.9-1.3s.2-.9.6-1.1c.4-.3,1.1-.4,2-.4h2.8s0,0,0,0c0,.4-.2.9-.6,1.4-.2.3-.5.6-.9.8-.3.2-.7.3-1,.4h0Z"/>
  <path class="st0" d="M57.3,26.7c.7.3,1.4.4,2.2.4s1.5-.2,2.2-.5c.6-.3,1.2-.8,1.6-1.4,0,0,0,0,0,0v1.6s0,0,0,0h3s0,0,0,0V9.1s0,0,0,0h-3s0,0,0,0v7.1s0,0,0,0c-.4-.5-.9-1-1.6-1.3-.6-.3-1.4-.5-2.2-.5s-1.5.2-2.3.5c-.7.3-1.3.7-1.9,1.3-.5.6-1,1.2-1.3,2-.3.8-.5,1.7-.5,2.6s.2,1.9.5,2.6c.3.8.8,1.4,1.3,2,.5.6,1.2,1,1.9,1.3h0ZM60.1,24.2c1.9,0,3.5-1.5,3.5-3.5s-1.5-3.5-3.5-3.5-3.5,1.5-3.5,3.5,1.5,3.5,3.5,3.5Z"/>
  <path class="st1" d="M40.1,14.7s0,0,0,0h3s0,0,0,0v1.4s0,0,0,0c.4-.5.9-.9,1.5-1.3.6-.3,1.3-.5,2.1-.5,1.4,0,2.6.5,3.4,1.4.9.9,1.3,2.1,1.3,3.7v7.3s0,0,0,0h-3.1s0,0,0,0v-7.1c0-1.4-1.1-2.5-2.5-2.5s-2.5,1.1-2.5,2.5v7.1s0,0,0,0h-3.1s0,0,0,0v-12.1h0Z"/>
  <path class="st1" d="M29.3,14.7s0,0,0,0h-3.1s0,0,0,0v7.3c0,1.6.4,2.9,1.2,3.8.8.9,2,1.4,3.5,1.4s1.4-.2,2-.5c.6-.3,1.1-.7,1.5-1.3,0,0,0,0,0,0v1.4s0,0,0,0h3s0,0,0,0v-12.1s0,0,0,0h-3.1s0,0,0,0v7.1c0,1.4-1.1,2.5-2.5,2.5s-2.5-1.1-2.5-2.5v-7.1Z"/>
  <path class="st1" d="M24.7,9.1s0,0,0,0h-1.5c-1,0-1.8,0-2.5.2-.7.2-1.2.5-1.6.9-.4.4-.7.9-.9,1.6-.2.7-.2,1.5-.2,2.5v.4s0,0,0,0h-1.9s0,0,0,0v2.7s0,0,0,0h1.9s0,0,0,0v9.3s0,0,0,0h3s0,0,0,0v-9.3s0,0,0,0h2.9s0,0,0,0v-2.7s0,0,0,0h-2.9s0,0,0,0v-.5c0-.5,0-.8,0-1.1,0-.3.1-.5.3-.7.2-.2.4-.3.7-.3.3,0,.7,0,1.3,0h.5s0,0,0,0l.7-2.8h0Z"/>
  <path class="st1" d="M264.3,27h-2.1v-1.3c-.7,1-1.9,1.6-3.1,1.6-2.5,0-4.3-1.9-4.3-5.1s1.8-5.1,4.3-5.1,2.3.6,3.1,1.6v-5h2.1v13.3ZM259.7,25.4c1,0,2-.6,2.5-1.3v-3.8c-.5-.7-1.5-1.3-2.5-1.3-1.7,0-2.7,1.3-2.7,3.2s1.1,3.2,2.7,3.2Z"/>
  <path class="st1" d="M250.6,27h-2.1v-9.7h2.1v1.4c.7-.9,1.9-1.6,3.1-1.6v2.1c-.2,0-.4,0-.7,0-.9,0-2.1.6-2.5,1.3v6.6Z"/>
  <path class="st1" d="M241.4,27.2c-3.1,0-5-2.3-5-5.1s1.9-5.1,5-5.1,5,2.3,5,5.1-1.9,5.1-5,5.1ZM241.4,25.4c1.8,0,2.8-1.5,2.8-3.2s-1-3.2-2.8-3.2-2.8,1.5-2.8,3.2,1,3.2,2.8,3.2Z"/>
  <path class="st1" d="M229.9,27.2c-3.1,0-5-2.3-5-5.1s1.9-5.1,5-5.1,5,2.3,5,5.1-1.9,5.1-5,5.1ZM229.9,25.4c1.8,0,2.8-1.5,2.8-3.2s-1-3.2-2.8-3.2-2.8,1.5-2.8,3.2,1,3.2,2.8,3.2Z"/>
  <path class="st1" d="M221.1,27h-2.2l-2.2-7.1-2.2,7.1h-2.2l-3-9.7h2.2l2,7,2.3-7h1.8l2.3,7,2-7h2.2l-3,9.7Z"/>
  <path class="st1" d="M207,27.2c-1.6,0-2.5-.9-2.5-2.5v-5.6h-1.6v-1.8h1.6v-2.6h2.1v2.6h2v1.8h-2v5.1c0,.7.3,1.1.9,1.1s.8-.2.9-.3l.5,1.6c-.4.4-1,.6-2,.6Z"/>
  <path class="st1" d="M201.4,27h-2.1v-6c0-1.5-.8-2-1.9-2s-2,.6-2.5,1.3v6.7h-2.1v-9.7h2.1v1.3c.6-.8,1.9-1.6,3.4-1.6s3.1,1.1,3.1,3.1v6.8Z"/>
  <path class="st1" d="M190,27h-2.1v-1c-.7.8-1.8,1.3-3.1,1.3s-3.4-1.1-3.4-3.2,1.8-3.1,3.4-3.1,2.4.4,3.1,1.2v-1.4c0-1.1-.9-1.8-2.3-1.8s-2,.4-2.9,1.2l-.9-1.5c1.1-1.1,2.5-1.6,4.1-1.6s4,.9,4,3.5v6.4ZM185.6,25.8c.9,0,1.8-.3,2.3-1v-1.5c-.5-.7-1.4-1-2.3-1s-2.1.7-2.1,1.7.9,1.7,2.1,1.7Z"/>
  <path class="st1" d="M175.2,27h-2.7c-.3-.3-.7-.7-1.2-1.2-1,.8-2.2,1.4-3.7,1.4-2.4,0-4.3-1.3-4.3-3.8s1.4-3.1,2.9-3.9c-.6-1-.9-2-.9-2.9,0-1.8,1.5-3.2,3.6-3.2s3.3,1,3.3,2.7-1.7,2.9-3.3,3.7c.5.6.9,1.2,1.3,1.6.4.5.9,1.1,1.3,1.5.6-1,1.1-2,1.3-2.8l1.7.8c-.5,1.1-1.1,2.3-1.9,3.3.8.9,1.6,1.7,2.6,2.6ZM167.8,25.6c.9,0,1.6-.4,2.3-.9-.7-.7-1.3-1.4-1.6-1.8-.5-.6-1-1.2-1.5-1.9-.9.6-1.5,1.3-1.5,2.4s1.1,2.3,2.3,2.3ZM167.3,16.7c0,.6.3,1.3.7,2,1.3-.6,2.3-1.2,2.3-2.4s-.6-1.3-1.3-1.3-1.6.7-1.6,1.6Z"/>
  <path class="st1" d="M151.2,30.9c-1.6,0-2.9-.4-4-1.4l1-1.5c.8.9,1.8,1.2,3.1,1.2s2.9-.6,2.9-2.6v-1.2c-.7,1-1.8,1.6-3.1,1.6-2.5,0-4.3-1.8-4.3-5s1.8-5,4.3-5,2.3.6,3.1,1.6v-1.3h2.1v9.2c0,3.5-2.6,4.4-5,4.4ZM151.6,25.2c1,0,2-.6,2.5-1.3v-3.6c-.5-.7-1.5-1.3-2.5-1.3-1.7,0-2.7,1.2-2.7,3.1s1.1,3.1,2.7,3.1Z"/>
  <path class="st1" d="M144.6,27h-2.1v-1c-.7.8-1.8,1.3-3.1,1.3s-3.4-1.1-3.4-3.2,1.8-3.1,3.4-3.1,2.4.4,3.1,1.2v-1.4c0-1.1-.9-1.8-2.3-1.8s-2,.4-2.9,1.2l-.9-1.5c1.1-1.1,2.5-1.6,4.1-1.6s4,.9,4,3.5v6.4ZM140.2,25.8c.9,0,1.8-.3,2.3-1v-1.5c-.5-.7-1.4-1-2.3-1s-2.1.7-2.1,1.7.9,1.7,2.1,1.7Z"/>
  <path class="st1" d="M133.8,27h-2.1v-1c-.7.8-1.8,1.3-3.1,1.3s-3.4-1.1-3.4-3.2,1.8-3.1,3.4-3.1,2.4.4,3.1,1.2v-1.4c0-1.1-.9-1.8-2.3-1.8s-2,.4-2.9,1.2l-.9-1.5c1.1-1.1,2.5-1.6,4.1-1.6s4,.9,4,3.5v6.4ZM129.4,25.8c.9,0,1.8-.3,2.3-1v-1.5c-.5-.7-1.4-1-2.3-1s-2.1.7-2.1,1.7.9,1.7,2.1,1.7Z"/>
  <path class="st1" d="M121,27h-2.1v-9.7h2.1v1.4c.7-.9,1.9-1.6,3.1-1.6v2.1c-.2,0-.4,0-.7,0-.9,0-2.1.6-2.5,1.3v6.6Z"/>
  <path class="st1" d="M113.6,27h-2.3l-3.9-9.7h2.2l2.8,7.2,2.8-7.2h2.3l-3.9,9.7Z"/>
</svg>