<?xml version="1.0" encoding="UTF-8"?>
<svg id="Funda_Icon" xmlns="http://www.w3.org/2000/svg" version="1.1" viewBox="0 0 250.1 199.3">
  <!-- Generator: Adobe Illustrator 29.0.0, SVG Export Plug-In . SVG Version: 2.1.0 Build 186)  -->
  <defs>
    <style>
      .st0 {
        fill: #64c1ed;
      }

      .st1 {
        fill: #6a281c;
      }

      .st2 {
        fill: #fff;
      }
    </style>
  </defs>
  <path class="st0" d="M120.3,199.3H0l33.6-125.5C45.2,30.3,84.7,0,129.8,0h120.3l-33.6,125.5c-11.6,43.6-51.1,73.9-96.2,73.9Z"/>
  <path class="st1" d="M52.6,78.9l-26.9,100.7h94.6c36.2,0,67.8-24.3,77.2-59.3l26.9-100.7h-94.6c-36.2,0-67.8,24.3-77.2,59.3Z"/>
  <path class="st2" d="M153.6,42.1c0-.2,0-.4-.3-.4h-9.7c-6.5,0-11.9.5-16.3,1.6-4.3,1.1-7.8,2.9-10.4,5.6-2.5,2.5-4.4,6-5.6,10.3-1.1,4.3-1.6,9.7-1.6,16.2v2.5c0,.2-.1.3-.3.3h-12.5c-.2,0-.3.1-.3.3v17.6c0,.2.1.3.3.3h12.5c.2,0,.3.1.3.3v60.5c0,.2.1.3.3.3h19.5c.2,0,.3-.1.3-.3v-60.5c0-.2.1-.3.3-.3h18.5c.2,0,.3-.1.3-.3v-17.6c0-.2-.1-.3-.3-.3h-18.5c-.2,0-.3-.1-.3-.3v-3.5c0-3,.1-5.4.4-7.2.3-1.9,1-3.3,2.1-4.3,1.2-1.1,2.8-1.8,4.8-2.1,2.1-.4,4.8-.6,8.4-.6h3.2c.1,0,.3,0,.3-.2l4.6-17.9Z"/>
</svg>