<svg width="266" height="36" viewBox="0 0 266 36" fill="none" xmlns="http://www.w3.org/2000/svg">
<path d="M74.7735 36H0L6.05989 13.3495C8.16532 5.47485 15.2978 0 23.4469 0H98.2204L92.1605 22.6506C90.0551 30.5233 82.9226 35.9982 74.7717 35.9982L74.7735 36Z" fill="#FF9B21"/>
<path d="M9.72191 14.3498L4.96753 32.1232H74.8549C81.2506 32.1232 86.8465 27.8256 88.4986 21.6484L93.253 3.875H23.3657C16.9699 3.875 11.3741 8.17254 9.72191 14.3498Z" fill="#6A281C"/>
<path fill-rule="evenodd" clip-rule="evenodd" d="M69.7357 26.1319C70.4832 26.791 71.5251 27.1196 72.8559 27.1196C73.8129 27.1196 74.6814 26.9246 75.4597 26.5364C76.2271 26.159 76.8284 25.6696 77.2581 25.0684C77.2708 25.0503 77.2997 25.0593 77.2997 25.081V26.8271C77.2997 26.8524 77.3195 26.8722 77.3448 26.8722H80.2411C80.2664 26.8722 80.2863 26.8524 80.2863 26.8271V19.4184C80.2863 17.8763 79.8006 16.6719 78.8273 15.8034C77.854 14.9348 76.4691 14.5015 74.6742 14.5015C73.3127 14.5015 72.1661 14.7633 71.2398 15.2869C70.8263 15.5181 70.4435 15.7799 70.0896 16.0724C70.0697 16.0887 70.0679 16.1176 70.0842 16.1356L71.8032 18.1742C71.8194 18.1941 71.8483 18.1959 71.8682 18.1797C72.3882 17.7246 72.9046 17.4483 73.3849 17.2876C73.7533 17.1522 74.1758 17.0836 74.6525 17.0836C75.5355 17.0836 76.1946 17.2858 76.628 17.6903C77.0613 18.0948 77.2798 18.6257 77.2798 19.2847V19.3967C77.2798 19.422 77.26 19.4418 77.2347 19.4418H74.091C72.399 19.4418 71.0683 19.8012 70.095 20.5198C69.1217 21.2385 68.636 22.2334 68.636 23.5064C68.636 24.5844 69.0025 25.4602 69.7357 26.1337V26.1319ZM74.8548 24.4039C74.4954 24.5086 74.1289 24.561 73.7551 24.561C72.4984 24.561 71.87 24.1204 71.87 23.2356C71.87 22.7571 72.065 22.3833 72.4532 22.1124C72.8577 21.8434 73.524 21.708 74.4521 21.708H77.2473C77.2762 21.708 77.2979 21.7351 77.2907 21.7621C77.1931 22.2027 77.0505 22.6993 76.7273 23.1417C76.5142 23.4324 76.1802 23.7574 75.866 23.9524C75.5518 24.1474 75.2141 24.2973 74.8548 24.4021V24.4039Z" fill="white"/>
<path fill-rule="evenodd" clip-rule="evenodd" d="M57.3162 26.6899C58.0259 26.977 58.7572 27.1196 59.5101 27.1196C60.3101 27.1196 61.0323 26.9535 61.6824 26.6212C62.3252 26.2854 62.8615 25.8285 63.293 25.2525C63.3057 25.2345 63.3346 25.2435 63.3346 25.2652V26.8253C63.3346 26.8506 63.3544 26.8704 63.3797 26.8704H66.3663C66.3916 26.8704 66.4115 26.8506 66.4115 26.8253V9.06815C66.4115 9.04287 66.3916 9.02301 66.3663 9.02301H63.3797C63.3544 9.02301 63.3346 9.04287 63.3346 9.06815V16.1483C63.3346 16.1699 63.3075 16.179 63.293 16.1627C62.8777 15.6156 62.3559 15.1894 61.7275 14.8825C61.0937 14.5665 60.3696 14.4076 59.5553 14.4076C58.7409 14.4076 58.0168 14.5592 57.2927 14.8608C56.5831 15.1479 55.9583 15.5704 55.4148 16.1284C54.8713 16.6863 54.4343 17.3581 54.1021 18.1417C53.7861 18.9254 53.6272 19.8012 53.6272 20.7654C53.6272 21.7296 53.7933 22.6289 54.1256 23.4125C54.4578 24.1818 54.8948 24.8444 55.4383 25.4024C55.9818 25.9604 56.6066 26.3901 57.3162 26.6917V26.6899ZM60.1313 24.1836C62.0381 24.1836 63.5838 22.6379 63.5838 20.7311C63.5838 18.8243 62.0381 17.2768 60.1313 17.2768C58.2245 17.2768 56.6788 18.8225 56.6788 20.7311C56.6788 22.6397 58.2245 24.1836 60.1313 24.1836Z" fill="white"/>
<path d="M40.1296 14.7019C40.1296 14.6766 40.1495 14.6568 40.1748 14.6568H43.2065C43.2318 14.6568 43.2517 14.6766 43.2517 14.7019V16.123C43.2517 16.1447 43.2806 16.1537 43.2932 16.1356C43.6796 15.6048 44.1617 15.1876 44.745 14.8825C45.3625 14.5665 46.0577 14.4076 46.8269 14.4076C48.2751 14.4076 49.4217 14.8608 50.265 15.7655C51.1245 16.6557 51.5542 17.8998 51.5542 19.4978V26.8271C51.5542 26.8524 51.5344 26.8723 51.5091 26.8723H48.4177C48.3925 26.8723 48.3726 26.8524 48.3726 26.8271V19.738C48.3726 18.3295 47.2314 17.1884 45.823 17.1884C44.4145 17.1884 43.2733 18.3295 43.2733 19.738V26.8271C43.2733 26.8524 43.2535 26.8723 43.2282 26.8723H40.1766C40.1513 26.8723 40.1314 26.8524 40.1314 26.8271V14.7019H40.1296Z" fill="white"/>
<path d="M29.2775 14.7019C29.2775 14.6766 29.2576 14.6567 29.2323 14.6567H26.1428C26.1175 14.6567 26.0977 14.6766 26.0977 14.7019V21.986C26.0977 23.6003 26.513 24.8589 27.3418 25.7635C28.1706 26.6682 29.3407 27.1214 30.8484 27.1214C31.6032 27.1214 32.2803 26.9625 32.8834 26.6465C33.4649 26.3413 33.9488 25.9224 34.3352 25.3934C34.3478 25.3753 34.3767 25.3843 34.3767 25.406V26.8271C34.3767 26.8524 34.3966 26.8722 34.4219 26.8722L37.4536 26.8505C37.4789 26.8505 37.4988 26.8307 37.4988 26.8054V14.6802C37.4988 14.6549 37.4789 14.6351 37.4536 14.6351L34.3785 14.6567C34.3533 14.6567 34.3334 14.6766 34.3334 14.7019V21.838C34.3334 23.2338 33.2012 24.3659 31.8054 24.3659C30.4096 24.3659 29.2775 23.2338 29.2775 21.838V14.7019Z" fill="white"/>
<path d="M24.6873 9.10249C24.6945 9.07359 24.6729 9.04651 24.644 9.04651H23.1543C22.1594 9.04651 21.3215 9.12957 20.6426 9.29569C19.9799 9.46182 19.4436 9.74892 19.0373 10.1552C18.6455 10.547 18.3584 11.0743 18.1778 11.7388C18.0117 12.4015 17.9286 13.2321 17.9286 14.227V14.6116C17.9286 14.6369 17.9088 14.6568 17.8835 14.6568H15.9604C15.9351 14.6568 15.9153 14.6766 15.9153 14.7019V17.4159C15.9153 17.4412 15.9351 17.461 15.9604 17.461H17.8835C17.9088 17.461 17.9286 17.4809 17.9286 17.5062V26.8271C17.9286 26.8524 17.9485 26.8723 17.9738 26.8723H20.982C21.0073 26.8723 21.0272 26.8524 21.0272 26.8271V17.5062C21.0272 17.4809 21.047 17.461 21.0723 17.461H23.9235C23.9488 17.461 23.9687 17.4412 23.9687 17.4159V14.7019C23.9687 14.6766 23.9488 14.6568 23.9235 14.6568H21.0723C21.047 14.6568 21.0272 14.6369 21.0272 14.6116V14.0681C21.0272 13.6005 21.0489 13.2303 21.0958 12.9594C21.1409 12.6723 21.2457 12.4538 21.4118 12.304C21.5924 12.1378 21.8416 12.0331 22.1575 11.988C22.4735 11.9284 22.9033 11.8977 23.4468 11.8977H23.9325C23.9524 11.8977 23.9705 11.8832 23.9759 11.8634L24.6855 9.10429L24.6873 9.10249Z" fill="white"/>
<path d="M264.322 27H262.222V25.68C261.482 26.64 260.362 27.24 259.122 27.24C256.642 27.24 254.822 25.36 254.822 22.18C254.822 19.06 256.622 17.1 259.122 17.1C260.322 17.1 261.442 17.66 262.222 18.68V13.66H264.322V27ZM259.722 25.38C260.722 25.38 261.742 24.82 262.222 24.1V20.26C261.742 19.54 260.722 18.96 259.722 18.96C258.062 18.96 257.002 20.3 257.002 22.18C257.002 24.04 258.062 25.38 259.722 25.38Z" fill="#333333"/>
<path d="M250.588 27H248.488V17.34H250.588V18.76C251.308 17.84 252.468 17.12 253.728 17.12V19.2C253.548 19.16 253.328 19.14 253.068 19.14C252.188 19.14 251.008 19.74 250.588 20.42V27Z" fill="#333333"/>
<path d="M241.384 27.24C238.324 27.24 236.424 24.94 236.424 22.16C236.424 19.4 238.324 17.1 241.384 17.1C244.484 17.1 246.364 19.4 246.364 22.16C246.364 24.94 244.484 27.24 241.384 27.24ZM241.384 25.38C243.184 25.38 244.184 23.88 244.184 22.16C244.184 20.46 243.184 18.96 241.384 18.96C239.604 18.96 238.604 20.46 238.604 22.16C238.604 23.88 239.604 25.38 241.384 25.38Z" fill="#333333"/>
<path d="M229.919 27.24C226.859 27.24 224.959 24.94 224.959 22.16C224.959 19.4 226.859 17.1 229.919 17.1C233.019 17.1 234.899 19.4 234.899 22.16C234.899 24.94 233.019 27.24 229.919 27.24ZM229.919 25.38C231.719 25.38 232.719 23.88 232.719 22.16C232.719 20.46 231.719 18.96 229.919 18.96C228.139 18.96 227.139 20.46 227.139 22.16C227.139 23.88 228.139 25.38 229.919 25.38Z" fill="#333333"/>
<path d="M221.1 27H218.9L216.66 19.92L214.42 27H212.22L209.22 17.34H211.4L213.44 24.36L215.74 17.34H217.58L219.88 24.36L221.92 17.34H224.1L221.1 27Z" fill="#333333"/>
<path d="M206.994 27.24C205.374 27.24 204.514 26.36 204.514 24.76V19.18H202.914V17.34H204.514V14.7H206.614V17.34H208.574V19.18H206.614V24.24C206.614 24.9 206.934 25.38 207.534 25.38C207.934 25.38 208.314 25.22 208.474 25.04L208.974 26.62C208.594 26.98 207.974 27.24 206.994 27.24Z" fill="#333333"/>
<path d="M201.366 27H199.266V20.96C199.266 19.46 198.506 18.96 197.326 18.96C196.246 18.96 195.326 19.6 194.846 20.26V27H192.746V17.34H194.846V18.66C195.486 17.9 196.726 17.1 198.246 17.1C200.326 17.1 201.366 18.22 201.366 20.2V27Z" fill="#333333"/>
<path d="M190.024 27H187.924V25.96C187.204 26.78 186.084 27.24 184.804 27.24C183.224 27.24 181.444 26.18 181.444 24.04C181.444 21.82 183.224 20.9 184.804 20.9C186.104 20.9 187.224 21.32 187.924 22.14V20.7C187.924 19.58 187.004 18.9 185.664 18.9C184.584 18.9 183.644 19.3 182.804 20.12L181.944 18.66C183.064 17.6 184.464 17.1 186.004 17.1C188.144 17.1 190.024 18 190.024 20.6V27ZM185.624 25.8C186.544 25.8 187.444 25.46 187.924 24.8V23.34C187.444 22.68 186.544 22.34 185.624 22.34C184.444 22.34 183.564 23.02 183.564 24.08C183.564 25.12 184.444 25.8 185.624 25.8Z" fill="#333333"/>
<path d="M175.196 27H172.456C172.136 26.72 171.716 26.3 171.276 25.84C170.276 26.68 169.036 27.24 167.536 27.24C165.156 27.24 163.236 25.98 163.236 23.44C163.236 21.4 164.616 20.34 166.136 19.54C165.576 18.54 165.196 17.54 165.196 16.62C165.196 14.82 166.736 13.46 168.816 13.46C170.636 13.46 172.116 14.46 172.116 16.2C172.116 18.22 170.436 19.1 168.776 19.9C169.236 20.52 169.716 21.1 170.096 21.54C170.536 22.08 170.976 22.6 171.416 23.08C172.036 22.12 172.496 21.08 172.736 20.3L174.456 21.08C173.976 22.14 173.376 23.34 172.596 24.38C173.396 25.24 174.236 26.08 175.196 27ZM167.796 25.56C168.656 25.56 169.436 25.18 170.096 24.62C169.436 23.9 168.816 23.22 168.456 22.78C167.976 22.2 167.456 21.54 166.976 20.86C166.096 21.44 165.476 22.16 165.476 23.26C165.476 24.72 166.576 25.56 167.796 25.56ZM167.316 16.66C167.316 17.26 167.576 17.98 167.976 18.68C169.236 18.08 170.256 17.44 170.256 16.3C170.256 15.48 169.676 15.02 168.916 15.02C168.016 15.02 167.316 15.7 167.316 16.66Z" fill="#333333"/>
<path d="M151.197 30.92C149.557 30.92 148.337 30.56 147.157 29.48L148.137 27.96C148.917 28.86 149.917 29.2 151.197 29.2C152.577 29.2 154.057 28.56 154.057 26.58V25.42C153.317 26.38 152.217 27.02 150.957 27.02C148.497 27.02 146.677 25.24 146.677 22.06C146.677 18.94 148.477 17.1 150.957 17.1C152.177 17.1 153.277 17.66 154.057 18.68V17.34H156.157V26.5C156.157 29.98 153.577 30.92 151.197 30.92ZM151.577 25.16C152.557 25.16 153.597 24.58 154.057 23.86V20.26C153.597 19.54 152.557 18.96 151.577 18.96C149.917 18.96 148.857 20.2 148.857 22.06C148.857 23.92 149.917 25.16 151.577 25.16Z" fill="#333333"/>
<path d="M144.555 27H142.455V25.96C141.735 26.78 140.615 27.24 139.335 27.24C137.755 27.24 135.975 26.18 135.975 24.04C135.975 21.82 137.755 20.9 139.335 20.9C140.635 20.9 141.755 21.32 142.455 22.14V20.7C142.455 19.58 141.535 18.9 140.195 18.9C139.115 18.9 138.175 19.3 137.335 20.12L136.475 18.66C137.595 17.6 138.995 17.1 140.535 17.1C142.675 17.1 144.555 18 144.555 20.6V27ZM140.155 25.8C141.075 25.8 141.975 25.46 142.455 24.8V23.34C141.975 22.68 141.075 22.34 140.155 22.34C138.975 22.34 138.095 23.02 138.095 24.08C138.095 25.12 138.975 25.8 140.155 25.8Z" fill="#333333"/>
<path d="M133.832 27H131.732V25.96C131.012 26.78 129.892 27.24 128.612 27.24C127.032 27.24 125.252 26.18 125.252 24.04C125.252 21.82 127.032 20.9 128.612 20.9C129.912 20.9 131.032 21.32 131.732 22.14V20.7C131.732 19.58 130.812 18.9 129.472 18.9C128.392 18.9 127.452 19.3 126.612 20.12L125.752 18.66C126.872 17.6 128.272 17.1 129.812 17.1C131.952 17.1 133.832 18 133.832 20.6V27ZM129.432 25.8C130.352 25.8 131.252 25.46 131.732 24.8V23.34C131.252 22.68 130.352 22.34 129.432 22.34C128.252 22.34 127.372 23.02 127.372 24.08C127.372 25.12 128.252 25.8 129.432 25.8Z" fill="#333333"/>
<path d="M120.998 27H118.898V17.34H120.998V18.76C121.718 17.84 122.878 17.12 124.138 17.12V19.2C123.958 19.16 123.738 19.14 123.478 19.14C122.598 19.14 121.418 19.74 120.998 20.42V27Z" fill="#333333"/>
<path d="M113.64 27H111.38L107.44 17.34H109.68L112.5 24.58L115.32 17.34H117.58L113.64 27Z" fill="#333333"/>
</svg>
