<svg width="243" height="36" viewBox="0 0 243 36" fill="none" xmlns="http://www.w3.org/2000/svg">
<g clip-path="url(#clip0_883_2398)">
<path d="M74.7735 36H0L6.05989 13.3495C8.16532 5.47485 15.2978 0 23.4469 0H98.2204L92.1605 22.6506C90.0551 30.5233 82.9226 35.9982 74.7717 35.9982L74.7735 36Z" fill="#FF9B21"/>
<path d="M9.72191 14.3498L4.96753 32.1232H74.8549C81.2506 32.1232 86.8465 27.8256 88.4986 21.6484L93.253 3.875H23.3657C16.9699 3.875 11.3741 8.17254 9.72191 14.3498Z" fill="#6A281C"/>
<path fill-rule="evenodd" clip-rule="evenodd" d="M69.7357 26.1319C70.4832 26.791 71.5251 27.1196 72.8559 27.1196C73.8129 27.1196 74.6814 26.9246 75.4597 26.5364C76.2271 26.159 76.8284 25.6696 77.2581 25.0684C77.2708 25.0503 77.2997 25.0593 77.2997 25.081V26.8271C77.2997 26.8524 77.3195 26.8722 77.3448 26.8722H80.2411C80.2664 26.8722 80.2863 26.8524 80.2863 26.8271V19.4184C80.2863 17.8763 79.8006 16.6719 78.8273 15.8034C77.854 14.9348 76.4691 14.5015 74.6742 14.5015C73.3127 14.5015 72.1661 14.7633 71.2398 15.2869C70.8263 15.5181 70.4435 15.7799 70.0896 16.0724C70.0697 16.0887 70.0679 16.1176 70.0842 16.1356L71.8032 18.1742C71.8194 18.1941 71.8483 18.1959 71.8682 18.1797C72.3882 17.7246 72.9046 17.4483 73.3849 17.2876C73.7533 17.1522 74.1758 17.0836 74.6525 17.0836C75.5355 17.0836 76.1946 17.2858 76.628 17.6903C77.0613 18.0948 77.2798 18.6257 77.2798 19.2847V19.3967C77.2798 19.422 77.26 19.4418 77.2347 19.4418H74.091C72.399 19.4418 71.0683 19.8012 70.095 20.5198C69.1217 21.2385 68.636 22.2334 68.636 23.5064C68.636 24.5844 69.0025 25.4602 69.7357 26.1337V26.1319ZM74.8548 24.4039C74.4954 24.5086 74.1289 24.561 73.7551 24.561C72.4984 24.561 71.87 24.1204 71.87 23.2356C71.87 22.7571 72.065 22.3833 72.4532 22.1124C72.8577 21.8434 73.524 21.708 74.4521 21.708H77.2473C77.2762 21.708 77.2979 21.7351 77.2907 21.7621C77.1931 22.2027 77.0505 22.6993 76.7273 23.1417C76.5142 23.4324 76.1802 23.7574 75.866 23.9524C75.5518 24.1474 75.2141 24.2973 74.8548 24.4021V24.4039Z" fill="white"/>
<path fill-rule="evenodd" clip-rule="evenodd" d="M57.3162 26.6899C58.0259 26.977 58.7572 27.1196 59.5101 27.1196C60.3101 27.1196 61.0323 26.9535 61.6824 26.6212C62.3252 26.2854 62.8615 25.8285 63.293 25.2525C63.3057 25.2345 63.3346 25.2435 63.3346 25.2652V26.8253C63.3346 26.8506 63.3544 26.8704 63.3797 26.8704H66.3663C66.3916 26.8704 66.4115 26.8506 66.4115 26.8253V9.06815C66.4115 9.04287 66.3916 9.02301 66.3663 9.02301H63.3797C63.3544 9.02301 63.3346 9.04287 63.3346 9.06815V16.1483C63.3346 16.1699 63.3075 16.179 63.293 16.1627C62.8777 15.6156 62.3559 15.1894 61.7275 14.8825C61.0937 14.5665 60.3696 14.4076 59.5553 14.4076C58.7409 14.4076 58.0168 14.5592 57.2927 14.8608C56.5831 15.1479 55.9583 15.5704 55.4148 16.1284C54.8713 16.6863 54.4343 17.3581 54.1021 18.1417C53.7861 18.9254 53.6272 19.8012 53.6272 20.7654C53.6272 21.7296 53.7933 22.6289 54.1256 23.4125C54.4578 24.1818 54.8948 24.8444 55.4383 25.4024C55.9818 25.9604 56.6066 26.3901 57.3162 26.6917V26.6899ZM60.1313 24.1836C62.0381 24.1836 63.5838 22.6379 63.5838 20.7311C63.5838 18.8243 62.0381 17.2768 60.1313 17.2768C58.2245 17.2768 56.6788 18.8225 56.6788 20.7311C56.6788 22.6397 58.2245 24.1836 60.1313 24.1836Z" fill="white"/>
<path d="M40.1296 14.7019C40.1296 14.6766 40.1495 14.6568 40.1748 14.6568H43.2065C43.2318 14.6568 43.2517 14.6766 43.2517 14.7019V16.123C43.2517 16.1447 43.2806 16.1537 43.2932 16.1356C43.6796 15.6048 44.1617 15.1876 44.745 14.8825C45.3625 14.5665 46.0577 14.4076 46.8269 14.4076C48.2751 14.4076 49.4217 14.8608 50.265 15.7655C51.1245 16.6557 51.5542 17.8998 51.5542 19.4978V26.8271C51.5542 26.8524 51.5344 26.8723 51.5091 26.8723H48.4177C48.3925 26.8723 48.3726 26.8524 48.3726 26.8271V19.738C48.3726 18.3295 47.2314 17.1884 45.823 17.1884C44.4145 17.1884 43.2733 18.3295 43.2733 19.738V26.8271C43.2733 26.8524 43.2535 26.8723 43.2282 26.8723H40.1766C40.1513 26.8723 40.1314 26.8524 40.1314 26.8271V14.7019H40.1296Z" fill="white"/>
<path d="M29.2775 14.7019C29.2775 14.6766 29.2576 14.6567 29.2323 14.6567H26.1428C26.1175 14.6567 26.0977 14.6766 26.0977 14.7019V21.986C26.0977 23.6003 26.513 24.8589 27.3418 25.7635C28.1706 26.6682 29.3407 27.1214 30.8484 27.1214C31.6032 27.1214 32.2803 26.9625 32.8834 26.6465C33.4649 26.3413 33.9488 25.9224 34.3352 25.3934C34.3478 25.3753 34.3767 25.3843 34.3767 25.406V26.8271C34.3767 26.8524 34.3966 26.8722 34.4219 26.8722L37.4536 26.8505C37.4789 26.8505 37.4988 26.8307 37.4988 26.8054V14.6802C37.4988 14.6549 37.4789 14.6351 37.4536 14.6351L34.3785 14.6567C34.3533 14.6567 34.3334 14.6766 34.3334 14.7019V21.838C34.3334 23.2338 33.2012 24.3659 31.8054 24.3659C30.4096 24.3659 29.2775 23.2338 29.2775 21.838V14.7019Z" fill="white"/>
<path d="M24.6873 9.10249C24.6945 9.07359 24.6729 9.04651 24.644 9.04651H23.1543C22.1594 9.04651 21.3215 9.12957 20.6426 9.29569C19.9799 9.46182 19.4436 9.74892 19.0373 10.1552C18.6455 10.547 18.3584 11.0743 18.1778 11.7388C18.0117 12.4015 17.9286 13.2321 17.9286 14.227V14.6116C17.9286 14.6369 17.9088 14.6568 17.8835 14.6568H15.9604C15.9351 14.6568 15.9153 14.6766 15.9153 14.7019V17.4159C15.9153 17.4412 15.9351 17.461 15.9604 17.461H17.8835C17.9088 17.461 17.9286 17.4809 17.9286 17.5062V26.8271C17.9286 26.8524 17.9485 26.8723 17.9738 26.8723H20.982C21.0073 26.8723 21.0272 26.8524 21.0272 26.8271V17.5062C21.0272 17.4809 21.047 17.461 21.0723 17.461H23.9235C23.9488 17.461 23.9687 17.4412 23.9687 17.4159V14.7019C23.9687 14.6766 23.9488 14.6568 23.9235 14.6568H21.0723C21.047 14.6568 21.0272 14.6369 21.0272 14.6116V14.0681C21.0272 13.6005 21.0489 13.2303 21.0958 12.9594C21.1409 12.6723 21.2457 12.4538 21.4118 12.304C21.5924 12.1378 21.8416 12.0331 22.1575 11.988C22.4735 11.9284 22.9033 11.8977 23.4468 11.8977H23.9325C23.9524 11.8977 23.9705 11.8832 23.9759 11.8634L24.6855 9.10429L24.6873 9.10249Z" fill="white"/>
<path d="M238.867 27.24C237.227 27.24 235.727 26.72 234.727 25.74L235.687 24.22C236.367 24.92 237.707 25.58 238.967 25.58C240.227 25.58 240.867 25.04 240.867 24.28C240.867 23.48 239.847 23.26 238.667 23C237.007 22.64 235.027 22.2 235.027 20.04C235.027 18.46 236.387 17.1 238.827 17.1C240.467 17.1 241.707 17.68 242.587 18.46L241.707 19.94C241.127 19.28 240.047 18.78 238.847 18.78C237.747 18.78 237.047 19.28 237.047 19.96C237.047 20.66 238.007 20.86 239.147 21.12C240.827 21.48 242.887 21.96 242.887 24.24C242.887 25.94 241.467 27.24 238.867 27.24Z" fill="#333333"/>
<path d="M230.733 27H228.633V17.34H230.733V18.76C231.453 17.84 232.613 17.12 233.873 17.12V19.2C233.693 19.16 233.473 19.14 233.213 19.14C232.333 19.14 231.153 19.74 230.733 20.42V27Z" fill="#333333"/>
<path d="M225.911 27H223.811V25.96C223.091 26.78 221.971 27.24 220.691 27.24C219.111 27.24 217.331 26.18 217.331 24.04C217.331 21.82 219.111 20.9 220.691 20.9C221.991 20.9 223.111 21.32 223.811 22.14V20.7C223.811 19.58 222.891 18.9 221.551 18.9C220.471 18.9 219.531 19.3 218.691 20.12L217.831 18.66C218.951 17.6 220.351 17.1 221.891 17.1C224.031 17.1 225.911 18 225.911 20.6V27ZM221.511 25.8C222.431 25.8 223.331 25.46 223.811 24.8V23.34C223.331 22.68 222.431 22.34 221.511 22.34C220.331 22.34 219.451 23.02 219.451 24.08C219.451 25.12 220.331 25.8 221.511 25.8Z" fill="#333333"/>
<path d="M215.188 27H213.088V25.96C212.368 26.78 211.248 27.24 209.968 27.24C208.388 27.24 206.608 26.18 206.608 24.04C206.608 21.82 208.388 20.9 209.968 20.9C211.268 20.9 212.388 21.32 213.088 22.14V20.7C213.088 19.58 212.168 18.9 210.828 18.9C209.748 18.9 208.808 19.3 207.968 20.12L207.108 18.66C208.228 17.6 209.628 17.1 211.168 17.1C213.308 17.1 215.188 18 215.188 20.6V27ZM210.788 25.8C211.708 25.8 212.608 25.46 213.088 24.8V23.34C212.608 22.68 211.708 22.34 210.788 22.34C209.608 22.34 208.728 23.02 208.728 24.08C208.728 25.12 209.608 25.8 210.788 25.8Z" fill="#333333"/>
<path d="M204.464 27H202.364V13.66H204.464V27Z" fill="#333333"/>
<path d="M195.691 27.24C192.791 27.24 190.631 25.22 190.631 22.16C190.631 19.36 192.671 17.1 195.531 17.1C198.431 17.1 200.291 19.32 200.291 22.36V22.86H192.831C192.991 24.32 194.091 25.52 195.911 25.52C196.851 25.52 197.971 25.14 198.651 24.46L199.611 25.84C198.651 26.76 197.231 27.24 195.691 27.24ZM198.251 21.38C198.211 20.24 197.431 18.82 195.531 18.82C193.731 18.82 192.911 20.2 192.811 21.38H198.251Z" fill="#333333"/>
<path d="M189.841 27H187.201L184.241 23.02L182.901 24.4V27H180.801V13.66H182.901V22L187.161 17.34H189.761L185.741 21.72L189.841 27Z" fill="#333333"/>
<path d="M178.079 27H175.979V25.96C175.259 26.78 174.139 27.24 172.859 27.24C171.279 27.24 169.499 26.18 169.499 24.04C169.499 21.82 171.279 20.9 172.859 20.9C174.159 20.9 175.279 21.32 175.979 22.14V20.7C175.979 19.58 175.059 18.9 173.719 18.9C172.639 18.9 171.699 19.3 170.859 20.12L169.999 18.66C171.119 17.6 172.519 17.1 174.059 17.1C176.199 17.1 178.079 18 178.079 20.6V27ZM173.679 25.8C174.599 25.8 175.499 25.46 175.979 24.8V23.34C175.499 22.68 174.599 22.34 173.679 22.34C172.499 22.34 171.619 23.02 171.619 24.08C171.619 25.12 172.499 25.8 173.679 25.8Z" fill="#333333"/>
<path d="M167.358 27H165.258V20.7C165.258 19.66 164.798 18.96 163.678 18.96C162.738 18.96 161.858 19.62 161.438 20.24V27H159.338V20.7C159.338 19.66 158.878 18.96 157.738 18.96C156.818 18.96 155.958 19.62 155.518 20.26V27H153.418V17.34H155.518V18.66C155.918 18.06 157.198 17.1 158.658 17.1C160.098 17.1 160.978 17.82 161.298 18.88C161.858 18 163.138 17.1 164.578 17.1C166.358 17.1 167.358 18.06 167.358 20.02V27Z" fill="#333333"/>
<path d="M143.448 27H141.348V17.34H143.448V18.76C144.168 17.84 145.328 17.12 146.588 17.12V19.2C146.408 19.16 146.188 19.14 145.928 19.14C145.048 19.14 143.868 19.74 143.448 20.42V27Z" fill="#333333"/>
<path d="M134.243 27.24C131.183 27.24 129.283 24.94 129.283 22.16C129.283 19.4 131.183 17.1 134.243 17.1C137.343 17.1 139.223 19.4 139.223 22.16C139.223 24.94 137.343 27.24 134.243 27.24ZM134.243 25.38C136.043 25.38 137.043 23.88 137.043 22.16C137.043 20.46 136.043 18.96 134.243 18.96C132.463 18.96 131.463 20.46 131.463 22.16C131.463 23.88 132.463 25.38 134.243 25.38Z" fill="#333333"/>
<path d="M122.779 27.24C119.719 27.24 117.819 24.94 117.819 22.16C117.819 19.4 119.719 17.1 122.779 17.1C125.879 17.1 127.759 19.4 127.759 22.16C127.759 24.94 125.879 27.24 122.779 27.24ZM122.779 25.38C124.579 25.38 125.579 23.88 125.579 22.16C125.579 20.46 124.579 18.96 122.779 18.96C120.999 18.96 119.999 20.46 119.999 22.16C119.999 23.88 120.999 25.38 122.779 25.38Z" fill="#333333"/>
<path d="M113.16 27H110.9L106.96 17.34H109.2L112.02 24.58L114.84 17.34H117.1L113.16 27Z" fill="#333333"/>
</g>
<defs>
<clipPath id="clip0_883_2398">
<rect width="243" height="36" fill="white"/>
</clipPath>
</defs>
</svg>
